<?xml version="1.0" encoding="utf-8"?>
<svg xmlns="http://www.w3.org/2000/svg" xmlns:xlink="http://www.w3.org/1999/xlink" xml:space="preserve" width="330" height="385" viewBox="0 0 330 385"><rect width="305.525" height="305.525" fill="#ffffff" x="13.75" y="13.75"/><g transform="scale(13.75)" fill="#000000"><path d="M22.7,0H1.3C0.6,0,0,0.6,0,1.3v25.3C0,27.4,0.6,28,1.3,28h21.3c0.7,0,1.3-0.6,1.3-1.3V1.3C24,0.6,23.4,0,22.7,0 z M23,22c0,0.6-0.5,1-1,1H2c-0.6,0-1-0.5-1-1V2c0-0.6,0.5-1,1-1h20c0.6,0,1,0.5,1,1V22z"/></g><g fill="#000000">
<g transform="translate(97,33) scale(1.3733333333333)"><rect width="6" height="6"/></g>
<g transform="translate(121,33) scale(1.3733333333333)"><rect width="6" height="6"/></g>
<g transform="translate(177,33) scale(1.3733333333333)"><rect width="6" height="6"/></g>
<g transform="translate(185,33) scale(1.3733333333333)"><rect width="6" height="6"/></g>
<g transform="translate(193,33) scale(1.3733333333333)"><rect width="6" height="6"/></g>
<g transform="translate(201,33) scale(1.3733333333333)"><rect width="6" height="6"/></g>
<g transform="translate(217,33) scale(1.3733333333333)"><rect width="6" height="6"/></g>
<g transform="translate(105,41) scale(1.3733333333333)"><rect width="6" height="6"/></g>
<g transform="translate(129,41) scale(1.3733333333333)"><rect width="6" height="6"/></g>
<g transform="translate(145,41) scale(1.3733333333333)"><rect width="6" height="6"/></g>
<g transform="translate(153,41) scale(1.3733333333333)"><rect width="6" height="6"/></g>
<g transform="translate(161,41) scale(1.3733333333333)"><rect width="6" height="6"/></g>
<g transform="translate(177,41) scale(1.3733333333333)"><rect width="6" height="6"/></g>
<g transform="translate(193,41) scale(1.3733333333333)"><rect width="6" height="6"/></g>
<g transform="translate(209,41) scale(1.3733333333333)"><rect width="6" height="6"/></g>
<g transform="translate(113,49) scale(1.3733333333333)"><rect width="6" height="6"/></g>
<g transform="translate(129,49) scale(1.3733333333333)"><rect width="6" height="6"/></g>
<g transform="translate(137,49) scale(1.3733333333333)"><rect width="6" height="6"/></g>
<g transform="translate(145,49) scale(1.3733333333333)"><rect width="6" height="6"/></g>
<g transform="translate(153,49) scale(1.3733333333333)"><rect width="6" height="6"/></g>
<g transform="translate(161,49) scale(1.3733333333333)"><rect width="6" height="6"/></g>
<g transform="translate(185,49) scale(1.3733333333333)"><rect width="6" height="6"/></g>
<g transform="translate(201,49) scale(1.3733333333333)"><rect width="6" height="6"/></g>
<g transform="translate(209,49) scale(1.3733333333333)"><rect width="6" height="6"/></g>
<g transform="translate(225,49) scale(1.3733333333333)"><rect width="6" height="6"/></g>
<g transform="translate(105,57) scale(1.3733333333333)"><rect width="6" height="6"/></g>
<g transform="translate(145,57) scale(1.3733333333333)"><rect width="6" height="6"/></g>
<g transform="translate(153,57) scale(1.3733333333333)"><rect width="6" height="6"/></g>
<g transform="translate(177,57) scale(1.3733333333333)"><rect width="6" height="6"/></g>
<g transform="translate(217,57) scale(1.3733333333333)"><rect width="6" height="6"/></g>
<g transform="translate(97,65) scale(1.3733333333333)"><rect width="6" height="6"/></g>
<g transform="translate(137,65) scale(1.3733333333333)"><rect width="6" height="6"/></g>
<g transform="translate(145,65) scale(1.3733333333333)"><rect width="6" height="6"/></g>
<g transform="translate(169,65) scale(1.3733333333333)"><rect width="6" height="6"/></g>
<g transform="translate(193,65) scale(1.3733333333333)"><rect width="6" height="6"/></g>
<g transform="translate(209,65) scale(1.3733333333333)"><rect width="6" height="6"/></g>
<g transform="translate(217,65) scale(1.3733333333333)"><rect width="6" height="6"/></g>
<g transform="translate(97,73) scale(1.3733333333333)"><rect width="6" height="6"/></g>
<g transform="translate(153,73) scale(1.3733333333333)"><rect width="6" height="6"/></g>
<g transform="translate(169,73) scale(1.3733333333333)"><rect width="6" height="6"/></g>
<g transform="translate(185,73) scale(1.3733333333333)"><rect width="6" height="6"/></g>
<g transform="translate(209,73) scale(1.3733333333333)"><rect width="6" height="6"/></g>
<g transform="translate(225,73) scale(1.3733333333333)"><rect width="6" height="6"/></g>
<g transform="translate(97,81) scale(1.3733333333333)"><rect width="6" height="6"/></g>
<g transform="translate(113,81) scale(1.3733333333333)"><rect width="6" height="6"/></g>
<g transform="translate(129,81) scale(1.3733333333333)"><rect width="6" height="6"/></g>
<g transform="translate(145,81) scale(1.3733333333333)"><rect width="6" height="6"/></g>
<g transform="translate(161,81) scale(1.3733333333333)"><rect width="6" height="6"/></g>
<g transform="translate(177,81) scale(1.3733333333333)"><rect width="6" height="6"/></g>
<g transform="translate(193,81) scale(1.3733333333333)"><rect width="6" height="6"/></g>
<g transform="translate(209,81) scale(1.3733333333333)"><rect width="6" height="6"/></g>
<g transform="translate(225,81) scale(1.3733333333333)"><rect width="6" height="6"/></g>
<g transform="translate(113,89) scale(1.3733333333333)"><rect width="6" height="6"/></g>
<g transform="translate(137,89) scale(1.3733333333333)"><rect width="6" height="6"/></g>
<g transform="translate(185,89) scale(1.3733333333333)"><rect width="6" height="6"/></g>
<g transform="translate(193,89) scale(1.3733333333333)"><rect width="6" height="6"/></g>
<g transform="translate(201,89) scale(1.3733333333333)"><rect width="6" height="6"/></g>
<g transform="translate(209,89) scale(1.3733333333333)"><rect width="6" height="6"/></g>
<g transform="translate(41,97) scale(1.3733333333333)"><rect width="6" height="6"/></g>
<g transform="translate(49,97) scale(1.3733333333333)"><rect width="6" height="6"/></g>
<g transform="translate(57,97) scale(1.3733333333333)"><rect width="6" height="6"/></g>
<g transform="translate(65,97) scale(1.3733333333333)"><rect width="6" height="6"/></g>
<g transform="translate(73,97) scale(1.3733333333333)"><rect width="6" height="6"/></g>
<g transform="translate(81,97) scale(1.3733333333333)"><rect width="6" height="6"/></g>
<g transform="translate(89,97) scale(1.3733333333333)"><rect width="6" height="6"/></g>
<g transform="translate(105,97) scale(1.3733333333333)"><rect width="6" height="6"/></g>
<g transform="translate(113,97) scale(1.3733333333333)"><rect width="6" height="6"/></g>
<g transform="translate(137,97) scale(1.3733333333333)"><rect width="6" height="6"/></g>
<g transform="translate(145,97) scale(1.3733333333333)"><rect width="6" height="6"/></g>
<g transform="translate(153,97) scale(1.3733333333333)"><rect width="6" height="6"/></g>
<g transform="translate(169,97) scale(1.3733333333333)"><rect width="6" height="6"/></g>
<g transform="translate(185,97) scale(1.3733333333333)"><rect width="6" height="6"/></g>
<g transform="translate(209,97) scale(1.3733333333333)"><rect width="6" height="6"/></g>
<g transform="translate(249,97) scale(1.3733333333333)"><rect width="6" height="6"/></g>
<g transform="translate(257,97) scale(1.3733333333333)"><rect width="6" height="6"/></g>
<g transform="translate(289,97) scale(1.3733333333333)"><rect width="6" height="6"/></g>
<g transform="translate(41,105) scale(1.3733333333333)"><rect width="6" height="6"/></g>
<g transform="translate(65,105) scale(1.3733333333333)"><rect width="6" height="6"/></g>
<g transform="translate(97,105) scale(1.3733333333333)"><rect width="6" height="6"/></g>
<g transform="translate(105,105) scale(1.3733333333333)"><rect width="6" height="6"/></g>
<g transform="translate(145,105) scale(1.3733333333333)"><rect width="6" height="6"/></g>
<g transform="translate(169,105) scale(1.3733333333333)"><rect width="6" height="6"/></g>
<g transform="translate(177,105) scale(1.3733333333333)"><rect width="6" height="6"/></g>
<g transform="translate(185,105) scale(1.3733333333333)"><rect width="6" height="6"/></g>
<g transform="translate(193,105) scale(1.3733333333333)"><rect width="6" height="6"/></g>
<g transform="translate(209,105) scale(1.3733333333333)"><rect width="6" height="6"/></g>
<g transform="translate(217,105) scale(1.3733333333333)"><rect width="6" height="6"/></g>
<g transform="translate(241,105) scale(1.3733333333333)"><rect width="6" height="6"/></g>
<g transform="translate(249,105) scale(1.3733333333333)"><rect width="6" height="6"/></g>
<g transform="translate(265,105) scale(1.3733333333333)"><rect width="6" height="6"/></g>
<g transform="translate(273,105) scale(1.3733333333333)"><rect width="6" height="6"/></g>
<g transform="translate(289,105) scale(1.3733333333333)"><rect width="6" height="6"/></g>
<g transform="translate(33,113) scale(1.3733333333333)"><rect width="6" height="6"/></g>
<g transform="translate(41,113) scale(1.3733333333333)"><rect width="6" height="6"/></g>
<g transform="translate(49,113) scale(1.3733333333333)"><rect width="6" height="6"/></g>
<g transform="translate(57,113) scale(1.3733333333333)"><rect width="6" height="6"/></g>
<g transform="translate(65,113) scale(1.3733333333333)"><rect width="6" height="6"/></g>
<g transform="translate(81,113) scale(1.3733333333333)"><rect width="6" height="6"/></g>
<g transform="translate(89,113) scale(1.3733333333333)"><rect width="6" height="6"/></g>
<g transform="translate(105,113) scale(1.3733333333333)"><rect width="6" height="6"/></g>
<g transform="translate(113,113) scale(1.3733333333333)"><rect width="6" height="6"/></g>
<g transform="translate(129,113) scale(1.3733333333333)"><rect width="6" height="6"/></g>
<g transform="translate(145,113) scale(1.3733333333333)"><rect width="6" height="6"/></g>
<g transform="translate(169,113) scale(1.3733333333333)"><rect width="6" height="6"/></g>
<g transform="translate(201,113) scale(1.3733333333333)"><rect width="6" height="6"/></g>
<g transform="translate(225,113) scale(1.3733333333333)"><rect width="6" height="6"/></g>
<g transform="translate(233,113) scale(1.3733333333333)"><rect width="6" height="6"/></g>
<g transform="translate(257,113) scale(1.3733333333333)"><rect width="6" height="6"/></g>
<g transform="translate(273,113) scale(1.3733333333333)"><rect width="6" height="6"/></g>
<g transform="translate(281,113) scale(1.3733333333333)"><rect width="6" height="6"/></g>
<g transform="translate(41,121) scale(1.3733333333333)"><rect width="6" height="6"/></g>
<g transform="translate(73,121) scale(1.3733333333333)"><rect width="6" height="6"/></g>
<g transform="translate(89,121) scale(1.3733333333333)"><rect width="6" height="6"/></g>
<g transform="translate(97,121) scale(1.3733333333333)"><rect width="6" height="6"/></g>
<g transform="translate(105,121) scale(1.3733333333333)"><rect width="6" height="6"/></g>
<g transform="translate(113,121) scale(1.3733333333333)"><rect width="6" height="6"/></g>
<g transform="translate(121,121) scale(1.3733333333333)"><rect width="6" height="6"/></g>
<g transform="translate(129,121) scale(1.3733333333333)"><rect width="6" height="6"/></g>
<g transform="translate(137,121) scale(1.3733333333333)"><rect width="6" height="6"/></g>
<g transform="translate(169,121) scale(1.3733333333333)"><rect width="6" height="6"/></g>
<g transform="translate(177,121) scale(1.3733333333333)"><rect width="6" height="6"/></g>
<g transform="translate(185,121) scale(1.3733333333333)"><rect width="6" height="6"/></g>
<g transform="translate(193,121) scale(1.3733333333333)"><rect width="6" height="6"/></g>
<g transform="translate(201,121) scale(1.3733333333333)"><rect width="6" height="6"/></g>
<g transform="translate(209,121) scale(1.3733333333333)"><rect width="6" height="6"/></g>
<g transform="translate(217,121) scale(1.3733333333333)"><rect width="6" height="6"/></g>
<g transform="translate(241,121) scale(1.3733333333333)"><rect width="6" height="6"/></g>
<g transform="translate(257,121) scale(1.3733333333333)"><rect width="6" height="6"/></g>
<g transform="translate(265,121) scale(1.3733333333333)"><rect width="6" height="6"/></g>
<g transform="translate(273,121) scale(1.3733333333333)"><rect width="6" height="6"/></g>
<g transform="translate(281,121) scale(1.3733333333333)"><rect width="6" height="6"/></g>
<g transform="translate(289,121) scale(1.3733333333333)"><rect width="6" height="6"/></g>
<g transform="translate(41,129) scale(1.3733333333333)"><rect width="6" height="6"/></g>
<g transform="translate(49,129) scale(1.3733333333333)"><rect width="6" height="6"/></g>
<g transform="translate(57,129) scale(1.3733333333333)"><rect width="6" height="6"/></g>
<g transform="translate(81,129) scale(1.3733333333333)"><rect width="6" height="6"/></g>
<g transform="translate(105,129) scale(1.3733333333333)"><rect width="6" height="6"/></g>
<g transform="translate(113,129) scale(1.3733333333333)"><rect width="6" height="6"/></g>
<g transform="translate(121,129) scale(1.3733333333333)"><rect width="6" height="6"/></g>
<g transform="translate(129,129) scale(1.3733333333333)"><rect width="6" height="6"/></g>
<g transform="translate(161,129) scale(1.3733333333333)"><rect width="6" height="6"/></g>
<g transform="translate(185,129) scale(1.3733333333333)"><rect width="6" height="6"/></g>
<g transform="translate(201,129) scale(1.3733333333333)"><rect width="6" height="6"/></g>
<g transform="translate(209,129) scale(1.3733333333333)"><rect width="6" height="6"/></g>
<g transform="translate(217,129) scale(1.3733333333333)"><rect width="6" height="6"/></g>
<g transform="translate(257,129) scale(1.3733333333333)"><rect width="6" height="6"/></g>
<g transform="translate(265,129) scale(1.3733333333333)"><rect width="6" height="6"/></g>
<g transform="translate(281,129) scale(1.3733333333333)"><rect width="6" height="6"/></g>
<g transform="translate(33,137) scale(1.3733333333333)"><rect width="6" height="6"/></g>
<g transform="translate(41,137) scale(1.3733333333333)"><rect width="6" height="6"/></g>
<g transform="translate(49,137) scale(1.3733333333333)"><rect width="6" height="6"/></g>
<g transform="translate(65,137) scale(1.3733333333333)"><rect width="6" height="6"/></g>
<g transform="translate(73,137) scale(1.3733333333333)"><rect width="6" height="6"/></g>
<g transform="translate(97,137) scale(1.3733333333333)"><rect width="6" height="6"/></g>
<g transform="translate(105,137) scale(1.3733333333333)"><rect width="6" height="6"/></g>
<g transform="translate(121,137) scale(1.3733333333333)"><rect width="6" height="6"/></g>
<g transform="translate(129,137) scale(1.3733333333333)"><rect width="6" height="6"/></g>
<g transform="translate(145,137) scale(1.3733333333333)"><rect width="6" height="6"/></g>
<g transform="translate(177,137) scale(1.3733333333333)"><rect width="6" height="6"/></g>
<g transform="translate(201,137) scale(1.3733333333333)"><rect width="6" height="6"/></g>
<g transform="translate(209,137) scale(1.3733333333333)"><rect width="6" height="6"/></g>
<g transform="translate(217,137) scale(1.3733333333333)"><rect width="6" height="6"/></g>
<g transform="translate(225,137) scale(1.3733333333333)"><rect width="6" height="6"/></g>
<g transform="translate(233,137) scale(1.3733333333333)"><rect width="6" height="6"/></g>
<g transform="translate(241,137) scale(1.3733333333333)"><rect width="6" height="6"/></g>
<g transform="translate(273,137) scale(1.3733333333333)"><rect width="6" height="6"/></g>
<g transform="translate(281,137) scale(1.3733333333333)"><rect width="6" height="6"/></g>
<g transform="translate(289,137) scale(1.3733333333333)"><rect width="6" height="6"/></g>
<g transform="translate(33,145) scale(1.3733333333333)"><rect width="6" height="6"/></g>
<g transform="translate(49,145) scale(1.3733333333333)"><rect width="6" height="6"/></g>
<g transform="translate(57,145) scale(1.3733333333333)"><rect width="6" height="6"/></g>
<g transform="translate(65,145) scale(1.3733333333333)"><rect width="6" height="6"/></g>
<g transform="translate(73,145) scale(1.3733333333333)"><rect width="6" height="6"/></g>
<g transform="translate(81,145) scale(1.3733333333333)"><rect width="6" height="6"/></g>
<g transform="translate(89,145) scale(1.3733333333333)"><rect width="6" height="6"/></g>
<g transform="translate(97,145) scale(1.3733333333333)"><rect width="6" height="6"/></g>
<g transform="translate(105,145) scale(1.3733333333333)"><rect width="6" height="6"/></g>
<g transform="translate(113,145) scale(1.3733333333333)"><rect width="6" height="6"/></g>
<g transform="translate(121,145) scale(1.3733333333333)"><rect width="6" height="6"/></g>
<g transform="translate(137,145) scale(1.3733333333333)"><rect width="6" height="6"/></g>
<g transform="translate(153,145) scale(1.3733333333333)"><rect width="6" height="6"/></g>
<g transform="translate(193,145) scale(1.3733333333333)"><rect width="6" height="6"/></g>
<g transform="translate(201,145) scale(1.3733333333333)"><rect width="6" height="6"/></g>
<g transform="translate(209,145) scale(1.3733333333333)"><rect width="6" height="6"/></g>
<g transform="translate(233,145) scale(1.3733333333333)"><rect width="6" height="6"/></g>
<g transform="translate(241,145) scale(1.3733333333333)"><rect width="6" height="6"/></g>
<g transform="translate(257,145) scale(1.3733333333333)"><rect width="6" height="6"/></g>
<g transform="translate(265,145) scale(1.3733333333333)"><rect width="6" height="6"/></g>
<g transform="translate(273,145) scale(1.3733333333333)"><rect width="6" height="6"/></g>
<g transform="translate(281,145) scale(1.3733333333333)"><rect width="6" height="6"/></g>
<g transform="translate(65,153) scale(1.3733333333333)"><rect width="6" height="6"/></g>
<g transform="translate(97,153) scale(1.3733333333333)"><rect width="6" height="6"/></g>
<g transform="translate(177,153) scale(1.3733333333333)"><rect width="6" height="6"/></g>
<g transform="translate(201,153) scale(1.3733333333333)"><rect width="6" height="6"/></g>
<g transform="translate(209,153) scale(1.3733333333333)"><rect width="6" height="6"/></g>
<g transform="translate(217,153) scale(1.3733333333333)"><rect width="6" height="6"/></g>
<g transform="translate(233,153) scale(1.3733333333333)"><rect width="6" height="6"/></g>
<g transform="translate(241,153) scale(1.3733333333333)"><rect width="6" height="6"/></g>
<g transform="translate(257,153) scale(1.3733333333333)"><rect width="6" height="6"/></g>
<g transform="translate(265,153) scale(1.3733333333333)"><rect width="6" height="6"/></g>
<g transform="translate(273,153) scale(1.3733333333333)"><rect width="6" height="6"/></g>
<g transform="translate(33,161) scale(1.3733333333333)"><rect width="6" height="6"/></g>
<g transform="translate(41,161) scale(1.3733333333333)"><rect width="6" height="6"/></g>
<g transform="translate(49,161) scale(1.3733333333333)"><rect width="6" height="6"/></g>
<g transform="translate(57,161) scale(1.3733333333333)"><rect width="6" height="6"/></g>
<g transform="translate(73,161) scale(1.3733333333333)"><rect width="6" height="6"/></g>
<g transform="translate(81,161) scale(1.3733333333333)"><rect width="6" height="6"/></g>
<g transform="translate(97,161) scale(1.3733333333333)"><rect width="6" height="6"/></g>
<g transform="translate(121,161) scale(1.3733333333333)"><rect width="6" height="6"/></g>
<g transform="translate(129,161) scale(1.3733333333333)"><rect width="6" height="6"/></g>
<g transform="translate(137,161) scale(1.3733333333333)"><rect width="6" height="6"/></g>
<g transform="translate(169,161) scale(1.3733333333333)"><rect width="6" height="6"/></g>
<g transform="translate(209,161) scale(1.3733333333333)"><rect width="6" height="6"/></g>
<g transform="translate(225,161) scale(1.3733333333333)"><rect width="6" height="6"/></g>
<g transform="translate(233,161) scale(1.3733333333333)"><rect width="6" height="6"/></g>
<g transform="translate(249,161) scale(1.3733333333333)"><rect width="6" height="6"/></g>
<g transform="translate(257,161) scale(1.3733333333333)"><rect width="6" height="6"/></g>
<g transform="translate(265,161) scale(1.3733333333333)"><rect width="6" height="6"/></g>
<g transform="translate(289,161) scale(1.3733333333333)"><rect width="6" height="6"/></g>
<g transform="translate(33,169) scale(1.3733333333333)"><rect width="6" height="6"/></g>
<g transform="translate(41,169) scale(1.3733333333333)"><rect width="6" height="6"/></g>
<g transform="translate(57,169) scale(1.3733333333333)"><rect width="6" height="6"/></g>
<g transform="translate(73,169) scale(1.3733333333333)"><rect width="6" height="6"/></g>
<g transform="translate(89,169) scale(1.3733333333333)"><rect width="6" height="6"/></g>
<g transform="translate(105,169) scale(1.3733333333333)"><rect width="6" height="6"/></g>
<g transform="translate(129,169) scale(1.3733333333333)"><rect width="6" height="6"/></g>
<g transform="translate(137,169) scale(1.3733333333333)"><rect width="6" height="6"/></g>
<g transform="translate(161,169) scale(1.3733333333333)"><rect width="6" height="6"/></g>
<g transform="translate(169,169) scale(1.3733333333333)"><rect width="6" height="6"/></g>
<g transform="translate(177,169) scale(1.3733333333333)"><rect width="6" height="6"/></g>
<g transform="translate(185,169) scale(1.3733333333333)"><rect width="6" height="6"/></g>
<g transform="translate(201,169) scale(1.3733333333333)"><rect width="6" height="6"/></g>
<g transform="translate(209,169) scale(1.3733333333333)"><rect width="6" height="6"/></g>
<g transform="translate(217,169) scale(1.3733333333333)"><rect width="6" height="6"/></g>
<g transform="translate(225,169) scale(1.3733333333333)"><rect width="6" height="6"/></g>
<g transform="translate(233,169) scale(1.3733333333333)"><rect width="6" height="6"/></g>
<g transform="translate(241,169) scale(1.3733333333333)"><rect width="6" height="6"/></g>
<g transform="translate(249,169) scale(1.3733333333333)"><rect width="6" height="6"/></g>
<g transform="translate(265,169) scale(1.3733333333333)"><rect width="6" height="6"/></g>
<g transform="translate(273,169) scale(1.3733333333333)"><rect width="6" height="6"/></g>
<g transform="translate(281,169) scale(1.3733333333333)"><rect width="6" height="6"/></g>
<g transform="translate(289,169) scale(1.3733333333333)"><rect width="6" height="6"/></g>
<g transform="translate(49,177) scale(1.3733333333333)"><rect width="6" height="6"/></g>
<g transform="translate(57,177) scale(1.3733333333333)"><rect width="6" height="6"/></g>
<g transform="translate(65,177) scale(1.3733333333333)"><rect width="6" height="6"/></g>
<g transform="translate(73,177) scale(1.3733333333333)"><rect width="6" height="6"/></g>
<g transform="translate(81,177) scale(1.3733333333333)"><rect width="6" height="6"/></g>
<g transform="translate(89,177) scale(1.3733333333333)"><rect width="6" height="6"/></g>
<g transform="translate(105,177) scale(1.3733333333333)"><rect width="6" height="6"/></g>
<g transform="translate(129,177) scale(1.3733333333333)"><rect width="6" height="6"/></g>
<g transform="translate(153,177) scale(1.3733333333333)"><rect width="6" height="6"/></g>
<g transform="translate(161,177) scale(1.3733333333333)"><rect width="6" height="6"/></g>
<g transform="translate(169,177) scale(1.3733333333333)"><rect width="6" height="6"/></g>
<g transform="translate(177,177) scale(1.3733333333333)"><rect width="6" height="6"/></g>
<g transform="translate(193,177) scale(1.3733333333333)"><rect width="6" height="6"/></g>
<g transform="translate(209,177) scale(1.3733333333333)"><rect width="6" height="6"/></g>
<g transform="translate(233,177) scale(1.3733333333333)"><rect width="6" height="6"/></g>
<g transform="translate(241,177) scale(1.3733333333333)"><rect width="6" height="6"/></g>
<g transform="translate(249,177) scale(1.3733333333333)"><rect width="6" height="6"/></g>
<g transform="translate(257,177) scale(1.3733333333333)"><rect width="6" height="6"/></g>
<g transform="translate(273,177) scale(1.3733333333333)"><rect width="6" height="6"/></g>
<g transform="translate(281,177) scale(1.3733333333333)"><rect width="6" height="6"/></g>
<g transform="translate(33,185) scale(1.3733333333333)"><rect width="6" height="6"/></g>
<g transform="translate(49,185) scale(1.3733333333333)"><rect width="6" height="6"/></g>
<g transform="translate(65,185) scale(1.3733333333333)"><rect width="6" height="6"/></g>
<g transform="translate(97,185) scale(1.3733333333333)"><rect width="6" height="6"/></g>
<g transform="translate(113,185) scale(1.3733333333333)"><rect width="6" height="6"/></g>
<g transform="translate(145,185) scale(1.3733333333333)"><rect width="6" height="6"/></g>
<g transform="translate(169,185) scale(1.3733333333333)"><rect width="6" height="6"/></g>
<g transform="translate(193,185) scale(1.3733333333333)"><rect width="6" height="6"/></g>
<g transform="translate(201,185) scale(1.3733333333333)"><rect width="6" height="6"/></g>
<g transform="translate(209,185) scale(1.3733333333333)"><rect width="6" height="6"/></g>
<g transform="translate(217,185) scale(1.3733333333333)"><rect width="6" height="6"/></g>
<g transform="translate(233,185) scale(1.3733333333333)"><rect width="6" height="6"/></g>
<g transform="translate(249,185) scale(1.3733333333333)"><rect width="6" height="6"/></g>
<g transform="translate(257,185) scale(1.3733333333333)"><rect width="6" height="6"/></g>
<g transform="translate(265,185) scale(1.3733333333333)"><rect width="6" height="6"/></g>
<g transform="translate(273,185) scale(1.3733333333333)"><rect width="6" height="6"/></g>
<g transform="translate(281,185) scale(1.3733333333333)"><rect width="6" height="6"/></g>
<g transform="translate(289,185) scale(1.3733333333333)"><rect width="6" height="6"/></g>
<g transform="translate(33,193) scale(1.3733333333333)"><rect width="6" height="6"/></g>
<g transform="translate(49,193) scale(1.3733333333333)"><rect width="6" height="6"/></g>
<g transform="translate(65,193) scale(1.3733333333333)"><rect width="6" height="6"/></g>
<g transform="translate(81,193) scale(1.3733333333333)"><rect width="6" height="6"/></g>
<g transform="translate(121,193) scale(1.3733333333333)"><rect width="6" height="6"/></g>
<g transform="translate(129,193) scale(1.3733333333333)"><rect width="6" height="6"/></g>
<g transform="translate(161,193) scale(1.3733333333333)"><rect width="6" height="6"/></g>
<g transform="translate(169,193) scale(1.3733333333333)"><rect width="6" height="6"/></g>
<g transform="translate(177,193) scale(1.3733333333333)"><rect width="6" height="6"/></g>
<g transform="translate(193,193) scale(1.3733333333333)"><rect width="6" height="6"/></g>
<g transform="translate(209,193) scale(1.3733333333333)"><rect width="6" height="6"/></g>
<g transform="translate(233,193) scale(1.3733333333333)"><rect width="6" height="6"/></g>
<g transform="translate(257,193) scale(1.3733333333333)"><rect width="6" height="6"/></g>
<g transform="translate(265,193) scale(1.3733333333333)"><rect width="6" height="6"/></g>
<g transform="translate(281,193) scale(1.3733333333333)"><rect width="6" height="6"/></g>
<g transform="translate(289,193) scale(1.3733333333333)"><rect width="6" height="6"/></g>
<g transform="translate(33,201) scale(1.3733333333333)"><rect width="6" height="6"/></g>
<g transform="translate(49,201) scale(1.3733333333333)"><rect width="6" height="6"/></g>
<g transform="translate(89,201) scale(1.3733333333333)"><rect width="6" height="6"/></g>
<g transform="translate(97,201) scale(1.3733333333333)"><rect width="6" height="6"/></g>
<g transform="translate(113,201) scale(1.3733333333333)"><rect width="6" height="6"/></g>
<g transform="translate(121,201) scale(1.3733333333333)"><rect width="6" height="6"/></g>
<g transform="translate(129,201) scale(1.3733333333333)"><rect width="6" height="6"/></g>
<g transform="translate(137,201) scale(1.3733333333333)"><rect width="6" height="6"/></g>
<g transform="translate(145,201) scale(1.3733333333333)"><rect width="6" height="6"/></g>
<g transform="translate(161,201) scale(1.3733333333333)"><rect width="6" height="6"/></g>
<g transform="translate(177,201) scale(1.3733333333333)"><rect width="6" height="6"/></g>
<g transform="translate(193,201) scale(1.3733333333333)"><rect width="6" height="6"/></g>
<g transform="translate(201,201) scale(1.3733333333333)"><rect width="6" height="6"/></g>
<g transform="translate(217,201) scale(1.3733333333333)"><rect width="6" height="6"/></g>
<g transform="translate(241,201) scale(1.3733333333333)"><rect width="6" height="6"/></g>
<g transform="translate(249,201) scale(1.3733333333333)"><rect width="6" height="6"/></g>
<g transform="translate(265,201) scale(1.3733333333333)"><rect width="6" height="6"/></g>
<g transform="translate(273,201) scale(1.3733333333333)"><rect width="6" height="6"/></g>
<g transform="translate(289,201) scale(1.3733333333333)"><rect width="6" height="6"/></g>
<g transform="translate(33,209) scale(1.3733333333333)"><rect width="6" height="6"/></g>
<g transform="translate(57,209) scale(1.3733333333333)"><rect width="6" height="6"/></g>
<g transform="translate(73,209) scale(1.3733333333333)"><rect width="6" height="6"/></g>
<g transform="translate(81,209) scale(1.3733333333333)"><rect width="6" height="6"/></g>
<g transform="translate(113,209) scale(1.3733333333333)"><rect width="6" height="6"/></g>
<g transform="translate(137,209) scale(1.3733333333333)"><rect width="6" height="6"/></g>
<g transform="translate(161,209) scale(1.3733333333333)"><rect width="6" height="6"/></g>
<g transform="translate(169,209) scale(1.3733333333333)"><rect width="6" height="6"/></g>
<g transform="translate(177,209) scale(1.3733333333333)"><rect width="6" height="6"/></g>
<g transform="translate(193,209) scale(1.3733333333333)"><rect width="6" height="6"/></g>
<g transform="translate(201,209) scale(1.3733333333333)"><rect width="6" height="6"/></g>
<g transform="translate(209,209) scale(1.3733333333333)"><rect width="6" height="6"/></g>
<g transform="translate(233,209) scale(1.3733333333333)"><rect width="6" height="6"/></g>
<g transform="translate(249,209) scale(1.3733333333333)"><rect width="6" height="6"/></g>
<g transform="translate(273,209) scale(1.3733333333333)"><rect width="6" height="6"/></g>
<g transform="translate(281,209) scale(1.3733333333333)"><rect width="6" height="6"/></g>
<g transform="translate(33,217) scale(1.3733333333333)"><rect width="6" height="6"/></g>
<g transform="translate(49,217) scale(1.3733333333333)"><rect width="6" height="6"/></g>
<g transform="translate(57,217) scale(1.3733333333333)"><rect width="6" height="6"/></g>
<g transform="translate(89,217) scale(1.3733333333333)"><rect width="6" height="6"/></g>
<g transform="translate(161,217) scale(1.3733333333333)"><rect width="6" height="6"/></g>
<g transform="translate(169,217) scale(1.3733333333333)"><rect width="6" height="6"/></g>
<g transform="translate(185,217) scale(1.3733333333333)"><rect width="6" height="6"/></g>
<g transform="translate(201,217) scale(1.3733333333333)"><rect width="6" height="6"/></g>
<g transform="translate(225,217) scale(1.3733333333333)"><rect width="6" height="6"/></g>
<g transform="translate(233,217) scale(1.3733333333333)"><rect width="6" height="6"/></g>
<g transform="translate(241,217) scale(1.3733333333333)"><rect width="6" height="6"/></g>
<g transform="translate(249,217) scale(1.3733333333333)"><rect width="6" height="6"/></g>
<g transform="translate(257,217) scale(1.3733333333333)"><rect width="6" height="6"/></g>
<g transform="translate(265,217) scale(1.3733333333333)"><rect width="6" height="6"/></g>
<g transform="translate(273,217) scale(1.3733333333333)"><rect width="6" height="6"/></g>
<g transform="translate(281,217) scale(1.3733333333333)"><rect width="6" height="6"/></g>
<g transform="translate(289,217) scale(1.3733333333333)"><rect width="6" height="6"/></g>
<g transform="translate(33,225) scale(1.3733333333333)"><rect width="6" height="6"/></g>
<g transform="translate(57,225) scale(1.3733333333333)"><rect width="6" height="6"/></g>
<g transform="translate(73,225) scale(1.3733333333333)"><rect width="6" height="6"/></g>
<g transform="translate(81,225) scale(1.3733333333333)"><rect width="6" height="6"/></g>
<g transform="translate(121,225) scale(1.3733333333333)"><rect width="6" height="6"/></g>
<g transform="translate(129,225) scale(1.3733333333333)"><rect width="6" height="6"/></g>
<g transform="translate(161,225) scale(1.3733333333333)"><rect width="6" height="6"/></g>
<g transform="translate(177,225) scale(1.3733333333333)"><rect width="6" height="6"/></g>
<g transform="translate(209,225) scale(1.3733333333333)"><rect width="6" height="6"/></g>
<g transform="translate(225,225) scale(1.3733333333333)"><rect width="6" height="6"/></g>
<g transform="translate(233,225) scale(1.3733333333333)"><rect width="6" height="6"/></g>
<g transform="translate(241,225) scale(1.3733333333333)"><rect width="6" height="6"/></g>
<g transform="translate(249,225) scale(1.3733333333333)"><rect width="6" height="6"/></g>
<g transform="translate(257,225) scale(1.3733333333333)"><rect width="6" height="6"/></g>
<g transform="translate(289,225) scale(1.3733333333333)"><rect width="6" height="6"/></g>
<g transform="translate(97,233) scale(1.3733333333333)"><rect width="6" height="6"/></g>
<g transform="translate(129,233) scale(1.3733333333333)"><rect width="6" height="6"/></g>
<g transform="translate(137,233) scale(1.3733333333333)"><rect width="6" height="6"/></g>
<g transform="translate(145,233) scale(1.3733333333333)"><rect width="6" height="6"/></g>
<g transform="translate(169,233) scale(1.3733333333333)"><rect width="6" height="6"/></g>
<g transform="translate(185,233) scale(1.3733333333333)"><rect width="6" height="6"/></g>
<g transform="translate(193,233) scale(1.3733333333333)"><rect width="6" height="6"/></g>
<g transform="translate(201,233) scale(1.3733333333333)"><rect width="6" height="6"/></g>
<g transform="translate(209,233) scale(1.3733333333333)"><rect width="6" height="6"/></g>
<g transform="translate(217,233) scale(1.3733333333333)"><rect width="6" height="6"/></g>
<g transform="translate(225,233) scale(1.3733333333333)"><rect width="6" height="6"/></g>
<g transform="translate(257,233) scale(1.3733333333333)"><rect width="6" height="6"/></g>
<g transform="translate(273,233) scale(1.3733333333333)"><rect width="6" height="6"/></g>
<g transform="translate(289,233) scale(1.3733333333333)"><rect width="6" height="6"/></g>
<g transform="translate(97,241) scale(1.3733333333333)"><rect width="6" height="6"/></g>
<g transform="translate(105,241) scale(1.3733333333333)"><rect width="6" height="6"/></g>
<g transform="translate(145,241) scale(1.3733333333333)"><rect width="6" height="6"/></g>
<g transform="translate(153,241) scale(1.3733333333333)"><rect width="6" height="6"/></g>
<g transform="translate(161,241) scale(1.3733333333333)"><rect width="6" height="6"/></g>
<g transform="translate(169,241) scale(1.3733333333333)"><rect width="6" height="6"/></g>
<g transform="translate(209,241) scale(1.3733333333333)"><rect width="6" height="6"/></g>
<g transform="translate(217,241) scale(1.3733333333333)"><rect width="6" height="6"/></g>
<g transform="translate(225,241) scale(1.3733333333333)"><rect width="6" height="6"/></g>
<g transform="translate(241,241) scale(1.3733333333333)"><rect width="6" height="6"/></g>
<g transform="translate(257,241) scale(1.3733333333333)"><rect width="6" height="6"/></g>
<g transform="translate(273,241) scale(1.3733333333333)"><rect width="6" height="6"/></g>
<g transform="translate(97,249) scale(1.3733333333333)"><rect width="6" height="6"/></g>
<g transform="translate(105,249) scale(1.3733333333333)"><rect width="6" height="6"/></g>
<g transform="translate(113,249) scale(1.3733333333333)"><rect width="6" height="6"/></g>
<g transform="translate(129,249) scale(1.3733333333333)"><rect width="6" height="6"/></g>
<g transform="translate(145,249) scale(1.3733333333333)"><rect width="6" height="6"/></g>
<g transform="translate(153,249) scale(1.3733333333333)"><rect width="6" height="6"/></g>
<g transform="translate(161,249) scale(1.3733333333333)"><rect width="6" height="6"/></g>
<g transform="translate(169,249) scale(1.3733333333333)"><rect width="6" height="6"/></g>
<g transform="translate(177,249) scale(1.3733333333333)"><rect width="6" height="6"/></g>
<g transform="translate(185,249) scale(1.3733333333333)"><rect width="6" height="6"/></g>
<g transform="translate(201,249) scale(1.3733333333333)"><rect width="6" height="6"/></g>
<g transform="translate(209,249) scale(1.3733333333333)"><rect width="6" height="6"/></g>
<g transform="translate(217,249) scale(1.3733333333333)"><rect width="6" height="6"/></g>
<g transform="translate(225,249) scale(1.3733333333333)"><rect width="6" height="6"/></g>
<g transform="translate(257,249) scale(1.3733333333333)"><rect width="6" height="6"/></g>
<g transform="translate(265,249) scale(1.3733333333333)"><rect width="6" height="6"/></g>
<g transform="translate(273,249) scale(1.3733333333333)"><rect width="6" height="6"/></g>
<g transform="translate(281,249) scale(1.3733333333333)"><rect width="6" height="6"/></g>
<g transform="translate(97,257) scale(1.3733333333333)"><rect width="6" height="6"/></g>
<g transform="translate(113,257) scale(1.3733333333333)"><rect width="6" height="6"/></g>
<g transform="translate(137,257) scale(1.3733333333333)"><rect width="6" height="6"/></g>
<g transform="translate(145,257) scale(1.3733333333333)"><rect width="6" height="6"/></g>
<g transform="translate(153,257) scale(1.3733333333333)"><rect width="6" height="6"/></g>
<g transform="translate(161,257) scale(1.3733333333333)"><rect width="6" height="6"/></g>
<g transform="translate(177,257) scale(1.3733333333333)"><rect width="6" height="6"/></g>
<g transform="translate(201,257) scale(1.3733333333333)"><rect width="6" height="6"/></g>
<g transform="translate(209,257) scale(1.3733333333333)"><rect width="6" height="6"/></g>
<g transform="translate(225,257) scale(1.3733333333333)"><rect width="6" height="6"/></g>
<g transform="translate(233,257) scale(1.3733333333333)"><rect width="6" height="6"/></g>
<g transform="translate(241,257) scale(1.3733333333333)"><rect width="6" height="6"/></g>
<g transform="translate(249,257) scale(1.3733333333333)"><rect width="6" height="6"/></g>
<g transform="translate(257,257) scale(1.3733333333333)"><rect width="6" height="6"/></g>
<g transform="translate(265,257) scale(1.3733333333333)"><rect width="6" height="6"/></g>
<g transform="translate(281,257) scale(1.3733333333333)"><rect width="6" height="6"/></g>
<g transform="translate(289,257) scale(1.3733333333333)"><rect width="6" height="6"/></g>
<g transform="translate(97,265) scale(1.3733333333333)"><rect width="6" height="6"/></g>
<g transform="translate(113,265) scale(1.3733333333333)"><rect width="6" height="6"/></g>
<g transform="translate(121,265) scale(1.3733333333333)"><rect width="6" height="6"/></g>
<g transform="translate(161,265) scale(1.3733333333333)"><rect width="6" height="6"/></g>
<g transform="translate(185,265) scale(1.3733333333333)"><rect width="6" height="6"/></g>
<g transform="translate(193,265) scale(1.3733333333333)"><rect width="6" height="6"/></g>
<g transform="translate(201,265) scale(1.3733333333333)"><rect width="6" height="6"/></g>
<g transform="translate(209,265) scale(1.3733333333333)"><rect width="6" height="6"/></g>
<g transform="translate(217,265) scale(1.3733333333333)"><rect width="6" height="6"/></g>
<g transform="translate(233,265) scale(1.3733333333333)"><rect width="6" height="6"/></g>
<g transform="translate(257,265) scale(1.3733333333333)"><rect width="6" height="6"/></g>
<g transform="translate(273,265) scale(1.3733333333333)"><rect width="6" height="6"/></g>
<g transform="translate(289,265) scale(1.3733333333333)"><rect width="6" height="6"/></g>
<g transform="translate(97,273) scale(1.3733333333333)"><rect width="6" height="6"/></g>
<g transform="translate(105,273) scale(1.3733333333333)"><rect width="6" height="6"/></g>
<g transform="translate(121,273) scale(1.3733333333333)"><rect width="6" height="6"/></g>
<g transform="translate(137,273) scale(1.3733333333333)"><rect width="6" height="6"/></g>
<g transform="translate(145,273) scale(1.3733333333333)"><rect width="6" height="6"/></g>
<g transform="translate(201,273) scale(1.3733333333333)"><rect width="6" height="6"/></g>
<g transform="translate(209,273) scale(1.3733333333333)"><rect width="6" height="6"/></g>
<g transform="translate(217,273) scale(1.3733333333333)"><rect width="6" height="6"/></g>
<g transform="translate(225,273) scale(1.3733333333333)"><rect width="6" height="6"/></g>
<g transform="translate(233,273) scale(1.3733333333333)"><rect width="6" height="6"/></g>
<g transform="translate(241,273) scale(1.3733333333333)"><rect width="6" height="6"/></g>
<g transform="translate(249,273) scale(1.3733333333333)"><rect width="6" height="6"/></g>
<g transform="translate(265,273) scale(1.3733333333333)"><rect width="6" height="6"/></g>
<g transform="translate(97,281) scale(1.3733333333333)"><rect width="6" height="6"/></g>
<g transform="translate(113,281) scale(1.3733333333333)"><rect width="6" height="6"/></g>
<g transform="translate(121,281) scale(1.3733333333333)"><rect width="6" height="6"/></g>
<g transform="translate(137,281) scale(1.3733333333333)"><rect width="6" height="6"/></g>
<g transform="translate(145,281) scale(1.3733333333333)"><rect width="6" height="6"/></g>
<g transform="translate(161,281) scale(1.3733333333333)"><rect width="6" height="6"/></g>
<g transform="translate(177,281) scale(1.3733333333333)"><rect width="6" height="6"/></g>
<g transform="translate(201,281) scale(1.3733333333333)"><rect width="6" height="6"/></g>
<g transform="translate(209,281) scale(1.3733333333333)"><rect width="6" height="6"/></g>
<g transform="translate(217,281) scale(1.3733333333333)"><rect width="6" height="6"/></g>
<g transform="translate(225,281) scale(1.3733333333333)"><rect width="6" height="6"/></g>
<g transform="translate(233,281) scale(1.3733333333333)"><rect width="6" height="6"/></g>
<g transform="translate(257,281) scale(1.3733333333333)"><rect width="6" height="6"/></g>
<g transform="translate(265,281) scale(1.3733333333333)"><rect width="6" height="6"/></g>
<g transform="translate(273,281) scale(1.3733333333333)"><rect width="6" height="6"/></g>
<g transform="translate(105,289) scale(1.3733333333333)"><rect width="6" height="6"/></g>
<g transform="translate(137,289) scale(1.3733333333333)"><rect width="6" height="6"/></g>
<g transform="translate(145,289) scale(1.3733333333333)"><rect width="6" height="6"/></g>
<g transform="translate(153,289) scale(1.3733333333333)"><rect width="6" height="6"/></g>
<g transform="translate(177,289) scale(1.3733333333333)"><rect width="6" height="6"/></g>
<g transform="translate(185,289) scale(1.3733333333333)"><rect width="6" height="6"/></g>
<g transform="translate(209,289) scale(1.3733333333333)"><rect width="6" height="6"/></g>
<g transform="translate(217,289) scale(1.3733333333333)"><rect width="6" height="6"/></g>
<g transform="translate(225,289) scale(1.3733333333333)"><rect width="6" height="6"/></g>
<g transform="translate(249,289) scale(1.3733333333333)"><rect width="6" height="6"/></g>
<g transform="translate(281,289) scale(1.3733333333333)"><rect width="6" height="6"/></g>
<g transform="translate(33,33)"><g transform="scale(4)"><path d="M0,0v14h14V0H0z M12,12H2V2h10V12z"/></g></g>
<g transform="translate(241,33)"><g transform="scale(4)"><path d="M0,0v14h14V0H0z M12,12H2V2h10V12z"/></g></g>
<g transform="translate(33,241)"><g transform="scale(4)"><path d="M0,0v14h14V0H0z M12,12H2V2h10V12z"/></g></g>
<g transform="translate(49,49)"><g transform="scale(4)"><rect width="6" height="6"/></g></g>
<g transform="translate(257,49)"><g transform="scale(4)"><rect width="6" height="6"/></g></g>
<g transform="translate(49,257)"><g transform="scale(4)"><rect width="6" height="6"/></g></g>
</g><g transform="translate(33,325.07527733756) scale(0.42842472266244)"><path fill="#FFFFFF" d="M44.189453125,54.443359375q3.076171875,0.390625,5.615234375,1.4892578125t4.3212890625,2.8564453125t2.783203125,4.1259765625t1.0009765625,5.2978515625q0,4.833984375-1.806640625,8.9599609375t-5.2978515625,7.177734375t-8.59375,4.7607421875t-11.6943359375,1.708984375l-28.7109375,0l14.306640625-67.578125l22.0703125,0q5.95703125,0,10.1806640625,0.732421875t6.884765625,2.392578125t3.90625,4.3701171875t1.2451171875,6.6650390625q0,2.880859375-0.87890625,5.56640625t-2.83203125,4.931640625t-5.029296875,3.955078125t-7.470703125,2.587890625z M32.177734375,49.70703125q2.294921875,0,4.7119140625-0.4150390625t4.4189453125-1.4404296875t3.2958984375-2.783203125t1.2939453125-4.443359375q0-1.416015625-0.5126953125-2.44140625t-1.708984375-1.6845703125t-3.1494140625-0.9765625t-4.833984375-0.3173828125l-8.59375,0l-3.076171875,14.501953125l8.154296875,0z M27.099609375,78.61328125q1.3671875,0,3.125-0.048828125t3.564453125-0.3173828125t3.5400390625-0.8544921875t3.076171875-1.6845703125t2.1728515625-2.783203125t0.830078125-4.1259765625q0-2.099609375-0.7080078125-3.466796875t-2.24609375-2.1728515625t-4.00390625-1.123046875t-5.9326171875-0.3173828125l-9.130859375,0l-3.466796875,16.89453125l9.1796875,0z M86.5234375,39.599609375l-6.005859375,28.22265625q-0.537109375,2.63671875-0.830078125,4.6630859375t-0.29296875,3.5400390625q0,2.9296875,1.0986328125,4.052734375t3.2958984375,1.123046875q1.904296875,0,3.8818359375-0.6103515625t3.9794921875-1.6357421875t3.9306640625-2.3681640625t3.7353515625-2.7587890625l7.177734375-34.228515625l12.3046875,0l-10.791015625,51.220703125l-12.3046875,0l1.416015625-6.591796875q-1.904296875,1.66015625-4.00390625,3.125t-4.3212890625,2.5634765625t-4.541015625,1.7578125t-4.6630859375,0.6591796875q-3.759765625,0-6.2744140625-1.0009765625t-4.0283203125-2.685546875t-2.1484375-3.90625t-0.634765625-4.6142578125q0-2.294921875,0.29296875-4.541015625t0.634765625-3.662109375l6.787109375-32.32421875l12.3046875,0z M130.615234375,76.806640625q0.87890625,1.5625,1.9775390625,2.5634765625t2.4169921875,1.5869140625t2.83203125,0.830078125t3.173828125,0.244140625q5.322265625,0,7.71484375-1.5625t2.392578125-4.052734375q0-1.025390625-0.3173828125-1.8310546875t-1.2939453125-1.5380859375t-2.8076171875-1.4404296875t-4.8095703125-1.4892578125q-4.345703125-1.123046875-7.2021484375-2.5146484375t-4.5654296875-3.173828125t-2.4169921875-4.0283203125t-0.7080078125-5.078125q0-3.41796875,1.416015625-6.54296875t4.19921875-5.4931640625t6.93359375-3.759765625t9.66796875-1.3916015625q6.73828125,0,11.4990234375,2.0751953125t8.0810546875,6.7138671875l-10.595703125,6.689453125q-1.26953125-2.392578125-3.90625-3.7841796875t-6.298828125-1.3916015625q-2.24609375,0-3.8330078125,0.48828125t-2.6123046875,1.220703125t-1.4892578125,1.5869140625t-0.4638671875,1.5869140625q0,1.07421875,0.2685546875,1.904296875t1.0986328125,1.5380859375t2.3193359375,1.318359375t3.9306640625,1.2451171875q4.736328125,1.220703125,7.91015625,2.6611328125t5.078125,3.2470703125t2.7099609375,4.0771484375t0.8056640625,5.2001953125q0,3.80859375-1.513671875,7.0556640625t-4.4677734375,5.6396484375t-7.32421875,3.759765625t-10.0830078125,1.3671875q-4.296875,0-7.4951171875-0.5859375t-5.5908203125-1.708984375t-4.1259765625-2.783203125t-3.1005859375-3.857421875z M171.044921875,90.8203125l10.791015625-51.220703125l12.3046875,0l-10.791015625,51.220703125l-12.3046875,0z M183.837890625,27.34375q0-1.025390625,0.341796875-2.4169921875t1.2451171875-2.6611328125t2.5146484375-2.1484375t4.1015625-0.87890625q3.3203125,0,4.7119140625,1.220703125t1.3916015625,3.369140625q0,1.171875-0.390625,2.6123046875t-1.3427734375,2.685546875t-2.5390625,2.0751953125t-4.0283203125,0.830078125q-1.708984375,0-2.880859375-0.3173828125t-1.85546875-0.927734375t-0.9765625-1.4892578125t-0.29296875-1.953125z M229.638671875,90.8203125l6.005859375-28.22265625q0.537109375-2.63671875,0.87890625-4.7607421875t0.341796875-4.2236328125q0-2.34375-1.1474609375-3.369140625t-3.2470703125-1.025390625q-1.904296875,0-3.9306640625,0.634765625t-4.0283203125,1.66015625t-3.9306640625,2.3681640625t-3.7353515625,2.7587890625l-7.177734375,34.1796875l-12.3046875,0l10.791015625-51.220703125l12.3046875,0l-1.416015625,6.640625q1.904296875-1.66015625,4.00390625-3.1494140625t4.3701171875-2.587890625t4.6875-1.7333984375t4.9560546875-0.634765625q3.564453125,0,5.9814453125,1.0009765625t3.8818359375,2.685546875t2.099609375,3.90625t0.634765625,4.6142578125q0,2.24609375-0.29296875,4.4921875t-0.634765625,3.662109375l-6.787109375,32.32421875l-12.3046875,0z M270.458984375,68.505859375q-0.244140625,1.123046875-0.3173828125,2.2216796875t-0.0732421875,1.9775390625q0,4.541015625,2.294921875,6.5673828125t6.689453125,2.0263671875q4.443359375,0,7.51953125-1.26953125t5.6640625-3.61328125l7.03125,8.0078125q-1.904296875,1.85546875-3.9306640625,3.3203125t-4.541015625,2.490234375t-5.6396484375,1.5625t-7.177734375,0.537109375q-5.6640625,0-9.619140625-1.513671875t-6.4453125-4.150390625t-3.61328125-6.201171875t-1.123046875-7.666015625q0-6.494140625,1.953125-12.744140625t5.908203125-11.81640625q1.611328125-2.24609375,3.7353515625-4.1015625t4.78515625-3.1982421875t5.8349609375-2.0751953125t6.884765625-0.732421875q5.126953125,0,8.837890625,1.171875t6.1279296875,3.4423828125t3.564453125,5.5908203125t1.1474609375,7.568359375q0,1.07421875-0.1953125,2.8076171875t-0.48828125,3.2958984375l-1.318359375,6.494140625l-33.49609375,0z M293.26171875,59.814453125q0.244140625-1.220703125,0.3662109375-2.2216796875t0.1220703125-1.9775390625q0-3.759765625-1.7822265625-5.615234375t-6.2255859375-1.85546875q-3.369140625,0-5.6884765625,1.171875t-3.9794921875,3.3203125q-1.123046875,1.416015625-2.0751953125,3.3203125t-1.5380859375,3.857421875l20.80078125,0z M318.9453125,76.806640625q0.87890625,1.5625,1.9775390625,2.5634765625t2.4169921875,1.5869140625t2.83203125,0.830078125t3.173828125,0.244140625q5.322265625,0,7.71484375-1.5625t2.392578125-4.052734375q0-1.025390625-0.3173828125-1.8310546875t-1.2939453125-1.5380859375t-2.8076171875-1.4404296875t-4.8095703125-1.4892578125q-4.345703125-1.123046875-7.2021484375-2.5146484375t-4.5654296875-3.173828125t-2.4169921875-4.0283203125t-0.7080078125-5.078125q0-3.41796875,1.416015625-6.54296875t4.19921875-5.4931640625t6.93359375-3.759765625t9.66796875-1.3916015625q6.73828125,0,11.4990234375,2.0751953125t8.0810546875,6.7138671875l-10.595703125,6.689453125q-1.26953125-2.392578125-3.90625-3.7841796875t-6.298828125-1.3916015625q-2.24609375,0-3.8330078125,0.48828125t-2.6123046875,1.220703125t-1.4892578125,1.5869140625t-0.4638671875,1.5869140625q0,1.07421875,0.2685546875,1.904296875t1.0986328125,1.5380859375t2.3193359375,1.318359375t3.9306640625,1.2451171875q4.736328125,1.220703125,7.91015625,2.6611328125t5.078125,3.2470703125t2.7099609375,4.0771484375t0.8056640625,5.2001953125q0,3.80859375-1.513671875,7.0556640625t-4.4677734375,5.6396484375t-7.32421875,3.759765625t-10.0830078125,1.3671875q-4.296875,0-7.4951171875-0.5859375t-5.5908203125-1.708984375t-4.1259765625-2.783203125t-3.1005859375-3.857421875z M368.06640625,76.806640625q0.87890625,1.5625,1.9775390625,2.5634765625t2.4169921875,1.5869140625t2.83203125,0.830078125t3.173828125,0.244140625q5.322265625,0,7.71484375-1.5625t2.392578125-4.052734375q0-1.025390625-0.3173828125-1.8310546875t-1.2939453125-1.5380859375t-2.8076171875-1.4404296875t-4.8095703125-1.4892578125q-4.345703125-1.123046875-7.2021484375-2.5146484375t-4.5654296875-3.173828125t-2.4169921875-4.0283203125t-0.7080078125-5.078125q0-3.41796875,1.416015625-6.54296875t4.19921875-5.4931640625t6.93359375-3.759765625t9.66796875-1.3916015625q6.73828125,0,11.4990234375,2.0751953125t8.0810546875,6.7138671875l-10.595703125,6.689453125q-1.26953125-2.392578125-3.90625-3.7841796875t-6.298828125-1.3916015625q-2.24609375,0-3.8330078125,0.48828125t-2.6123046875,1.220703125t-1.4892578125,1.5869140625t-0.4638671875,1.5869140625q0,1.07421875,0.2685546875,1.904296875t1.0986328125,1.5380859375t2.3193359375,1.318359375t3.9306640625,1.2451171875q4.736328125,1.220703125,7.91015625,2.6611328125t5.078125,3.2470703125t2.7099609375,4.0771484375t0.8056640625,5.2001953125q0,3.80859375-1.513671875,7.0556640625t-4.4677734375,5.6396484375t-7.32421875,3.759765625t-10.0830078125,1.3671875q-4.296875,0-7.4951171875-0.5859375t-5.5908203125-1.708984375t-4.1259765625-2.783203125t-3.1005859375-3.857421875z  M435.205078125,90.8203125l14.306640625-67.578125l13.4765625,0l-11.669921875,54.98046875l27.783203125,0l-2.587890625,12.59765625l-41.30859375,0z M486.328125,74.0234375q0-3.857421875,0.7568359375-8.0078125t2.2705078125-8.1298828125t3.759765625-7.568359375t5.224609375-6.298828125t6.6650390625-4.296875t8.0810546875-1.5869140625q4.541015625,0,7.9345703125,1.3671875t5.6884765625,3.90625l0.78125-3.80859375l12.20703125,0l-10.693359375,51.220703125l-10.302734375,0l0.29296875-6.298828125q-2.5390625,2.1484375-4.7119140625,3.6376953125t-4.1748046875,2.4169921875t-4.00390625,1.3427734375t-4.19921875,0.4150390625q-3.662109375,0-6.54296875-1.025390625t-4.8828125-3.2470703125t-3.076171875-5.6884765625t-1.07421875-8.349609375z M524.51171875,53.80859375q-0.78125-0.87890625-1.85546875-1.708984375t-2.34375-1.46484375t-2.685546875-1.025390625t-2.9296875-0.390625q-2.587890625,0-4.7119140625,1.07421875t-3.80859375,2.9052734375t-2.9296875,4.19921875t-2.0751953125,4.9072265625t-1.2451171875,5.126953125t-0.4150390625,4.78515625q0,4.6875,1.5625,6.8359375t4.931640625,2.1484375q1.904296875,0,3.8330078125-0.5859375t3.759765625-1.4892578125t3.4912109375-2.0263671875t3.02734375-2.197265625z M596.09375,90.8203125l-11.279296875,0l-4.39453125-32.6171875l-18.212890625,32.6171875l-11.279296875,0l-2.9296875-51.220703125l12.3046875,0l0.830078125,33.0078125l18.1640625-33.0078125l9.326171875,0l4.4921875,32.71484375l14.404296875-32.71484375l12.79296875,0z"/></g></svg>
