<?xml version="1.0" encoding="utf-8"?>
<svg xmlns="http://www.w3.org/2000/svg" xmlns:xlink="http://www.w3.org/1999/xlink" xml:space="preserve" width="330" height="385" viewBox="0 0 330 385"><rect width="305.525" height="305.525" fill="#ffffff" x="13.75" y="13.75"/><g transform="scale(13.75)" fill="#000000"><path d="M22.7,0H1.3C0.6,0,0,0.6,0,1.3v25.3C0,27.4,0.6,28,1.3,28h21.3c0.7,0,1.3-0.6,1.3-1.3V1.3C24,0.6,23.4,0,22.7,0 z M23,22c0,0.6-0.5,1-1,1H2c-0.6,0-1-0.5-1-1V2c0-0.6,0.5-1,1-1h20c0.6,0,1,0.5,1,1V22z"/></g><g fill="#000000">
<g transform="translate(97,33) scale(1.3733333333333)"><rect width="6" height="6"/></g>
<g transform="translate(121,33) scale(1.3733333333333)"><rect width="6" height="6"/></g>
<g transform="translate(177,33) scale(1.3733333333333)"><rect width="6" height="6"/></g>
<g transform="translate(185,33) scale(1.3733333333333)"><rect width="6" height="6"/></g>
<g transform="translate(193,33) scale(1.3733333333333)"><rect width="6" height="6"/></g>
<g transform="translate(201,33) scale(1.3733333333333)"><rect width="6" height="6"/></g>
<g transform="translate(217,33) scale(1.3733333333333)"><rect width="6" height="6"/></g>
<g transform="translate(105,41) scale(1.3733333333333)"><rect width="6" height="6"/></g>
<g transform="translate(129,41) scale(1.3733333333333)"><rect width="6" height="6"/></g>
<g transform="translate(145,41) scale(1.3733333333333)"><rect width="6" height="6"/></g>
<g transform="translate(153,41) scale(1.3733333333333)"><rect width="6" height="6"/></g>
<g transform="translate(161,41) scale(1.3733333333333)"><rect width="6" height="6"/></g>
<g transform="translate(177,41) scale(1.3733333333333)"><rect width="6" height="6"/></g>
<g transform="translate(193,41) scale(1.3733333333333)"><rect width="6" height="6"/></g>
<g transform="translate(209,41) scale(1.3733333333333)"><rect width="6" height="6"/></g>
<g transform="translate(113,49) scale(1.3733333333333)"><rect width="6" height="6"/></g>
<g transform="translate(129,49) scale(1.3733333333333)"><rect width="6" height="6"/></g>
<g transform="translate(137,49) scale(1.3733333333333)"><rect width="6" height="6"/></g>
<g transform="translate(145,49) scale(1.3733333333333)"><rect width="6" height="6"/></g>
<g transform="translate(153,49) scale(1.3733333333333)"><rect width="6" height="6"/></g>
<g transform="translate(161,49) scale(1.3733333333333)"><rect width="6" height="6"/></g>
<g transform="translate(185,49) scale(1.3733333333333)"><rect width="6" height="6"/></g>
<g transform="translate(201,49) scale(1.3733333333333)"><rect width="6" height="6"/></g>
<g transform="translate(209,49) scale(1.3733333333333)"><rect width="6" height="6"/></g>
<g transform="translate(225,49) scale(1.3733333333333)"><rect width="6" height="6"/></g>
<g transform="translate(105,57) scale(1.3733333333333)"><rect width="6" height="6"/></g>
<g transform="translate(145,57) scale(1.3733333333333)"><rect width="6" height="6"/></g>
<g transform="translate(153,57) scale(1.3733333333333)"><rect width="6" height="6"/></g>
<g transform="translate(177,57) scale(1.3733333333333)"><rect width="6" height="6"/></g>
<g transform="translate(217,57) scale(1.3733333333333)"><rect width="6" height="6"/></g>
<g transform="translate(97,65) scale(1.3733333333333)"><rect width="6" height="6"/></g>
<g transform="translate(137,65) scale(1.3733333333333)"><rect width="6" height="6"/></g>
<g transform="translate(145,65) scale(1.3733333333333)"><rect width="6" height="6"/></g>
<g transform="translate(169,65) scale(1.3733333333333)"><rect width="6" height="6"/></g>
<g transform="translate(193,65) scale(1.3733333333333)"><rect width="6" height="6"/></g>
<g transform="translate(209,65) scale(1.3733333333333)"><rect width="6" height="6"/></g>
<g transform="translate(217,65) scale(1.3733333333333)"><rect width="6" height="6"/></g>
<g transform="translate(97,73) scale(1.3733333333333)"><rect width="6" height="6"/></g>
<g transform="translate(153,73) scale(1.3733333333333)"><rect width="6" height="6"/></g>
<g transform="translate(169,73) scale(1.3733333333333)"><rect width="6" height="6"/></g>
<g transform="translate(185,73) scale(1.3733333333333)"><rect width="6" height="6"/></g>
<g transform="translate(209,73) scale(1.3733333333333)"><rect width="6" height="6"/></g>
<g transform="translate(225,73) scale(1.3733333333333)"><rect width="6" height="6"/></g>
<g transform="translate(97,81) scale(1.3733333333333)"><rect width="6" height="6"/></g>
<g transform="translate(113,81) scale(1.3733333333333)"><rect width="6" height="6"/></g>
<g transform="translate(129,81) scale(1.3733333333333)"><rect width="6" height="6"/></g>
<g transform="translate(145,81) scale(1.3733333333333)"><rect width="6" height="6"/></g>
<g transform="translate(161,81) scale(1.3733333333333)"><rect width="6" height="6"/></g>
<g transform="translate(177,81) scale(1.3733333333333)"><rect width="6" height="6"/></g>
<g transform="translate(193,81) scale(1.3733333333333)"><rect width="6" height="6"/></g>
<g transform="translate(209,81) scale(1.3733333333333)"><rect width="6" height="6"/></g>
<g transform="translate(225,81) scale(1.3733333333333)"><rect width="6" height="6"/></g>
<g transform="translate(113,89) scale(1.3733333333333)"><rect width="6" height="6"/></g>
<g transform="translate(137,89) scale(1.3733333333333)"><rect width="6" height="6"/></g>
<g transform="translate(185,89) scale(1.3733333333333)"><rect width="6" height="6"/></g>
<g transform="translate(193,89) scale(1.3733333333333)"><rect width="6" height="6"/></g>
<g transform="translate(201,89) scale(1.3733333333333)"><rect width="6" height="6"/></g>
<g transform="translate(209,89) scale(1.3733333333333)"><rect width="6" height="6"/></g>
<g transform="translate(41,97) scale(1.3733333333333)"><rect width="6" height="6"/></g>
<g transform="translate(49,97) scale(1.3733333333333)"><rect width="6" height="6"/></g>
<g transform="translate(57,97) scale(1.3733333333333)"><rect width="6" height="6"/></g>
<g transform="translate(65,97) scale(1.3733333333333)"><rect width="6" height="6"/></g>
<g transform="translate(73,97) scale(1.3733333333333)"><rect width="6" height="6"/></g>
<g transform="translate(81,97) scale(1.3733333333333)"><rect width="6" height="6"/></g>
<g transform="translate(89,97) scale(1.3733333333333)"><rect width="6" height="6"/></g>
<g transform="translate(105,97) scale(1.3733333333333)"><rect width="6" height="6"/></g>
<g transform="translate(113,97) scale(1.3733333333333)"><rect width="6" height="6"/></g>
<g transform="translate(137,97) scale(1.3733333333333)"><rect width="6" height="6"/></g>
<g transform="translate(145,97) scale(1.3733333333333)"><rect width="6" height="6"/></g>
<g transform="translate(153,97) scale(1.3733333333333)"><rect width="6" height="6"/></g>
<g transform="translate(169,97) scale(1.3733333333333)"><rect width="6" height="6"/></g>
<g transform="translate(185,97) scale(1.3733333333333)"><rect width="6" height="6"/></g>
<g transform="translate(209,97) scale(1.3733333333333)"><rect width="6" height="6"/></g>
<g transform="translate(249,97) scale(1.3733333333333)"><rect width="6" height="6"/></g>
<g transform="translate(257,97) scale(1.3733333333333)"><rect width="6" height="6"/></g>
<g transform="translate(289,97) scale(1.3733333333333)"><rect width="6" height="6"/></g>
<g transform="translate(41,105) scale(1.3733333333333)"><rect width="6" height="6"/></g>
<g transform="translate(65,105) scale(1.3733333333333)"><rect width="6" height="6"/></g>
<g transform="translate(97,105) scale(1.3733333333333)"><rect width="6" height="6"/></g>
<g transform="translate(105,105) scale(1.3733333333333)"><rect width="6" height="6"/></g>
<g transform="translate(145,105) scale(1.3733333333333)"><rect width="6" height="6"/></g>
<g transform="translate(169,105) scale(1.3733333333333)"><rect width="6" height="6"/></g>
<g transform="translate(177,105) scale(1.3733333333333)"><rect width="6" height="6"/></g>
<g transform="translate(185,105) scale(1.3733333333333)"><rect width="6" height="6"/></g>
<g transform="translate(193,105) scale(1.3733333333333)"><rect width="6" height="6"/></g>
<g transform="translate(209,105) scale(1.3733333333333)"><rect width="6" height="6"/></g>
<g transform="translate(217,105) scale(1.3733333333333)"><rect width="6" height="6"/></g>
<g transform="translate(241,105) scale(1.3733333333333)"><rect width="6" height="6"/></g>
<g transform="translate(249,105) scale(1.3733333333333)"><rect width="6" height="6"/></g>
<g transform="translate(265,105) scale(1.3733333333333)"><rect width="6" height="6"/></g>
<g transform="translate(273,105) scale(1.3733333333333)"><rect width="6" height="6"/></g>
<g transform="translate(289,105) scale(1.3733333333333)"><rect width="6" height="6"/></g>
<g transform="translate(33,113) scale(1.3733333333333)"><rect width="6" height="6"/></g>
<g transform="translate(41,113) scale(1.3733333333333)"><rect width="6" height="6"/></g>
<g transform="translate(49,113) scale(1.3733333333333)"><rect width="6" height="6"/></g>
<g transform="translate(57,113) scale(1.3733333333333)"><rect width="6" height="6"/></g>
<g transform="translate(65,113) scale(1.3733333333333)"><rect width="6" height="6"/></g>
<g transform="translate(81,113) scale(1.3733333333333)"><rect width="6" height="6"/></g>
<g transform="translate(89,113) scale(1.3733333333333)"><rect width="6" height="6"/></g>
<g transform="translate(105,113) scale(1.3733333333333)"><rect width="6" height="6"/></g>
<g transform="translate(113,113) scale(1.3733333333333)"><rect width="6" height="6"/></g>
<g transform="translate(129,113) scale(1.3733333333333)"><rect width="6" height="6"/></g>
<g transform="translate(145,113) scale(1.3733333333333)"><rect width="6" height="6"/></g>
<g transform="translate(169,113) scale(1.3733333333333)"><rect width="6" height="6"/></g>
<g transform="translate(201,113) scale(1.3733333333333)"><rect width="6" height="6"/></g>
<g transform="translate(225,113) scale(1.3733333333333)"><rect width="6" height="6"/></g>
<g transform="translate(233,113) scale(1.3733333333333)"><rect width="6" height="6"/></g>
<g transform="translate(257,113) scale(1.3733333333333)"><rect width="6" height="6"/></g>
<g transform="translate(273,113) scale(1.3733333333333)"><rect width="6" height="6"/></g>
<g transform="translate(281,113) scale(1.3733333333333)"><rect width="6" height="6"/></g>
<g transform="translate(41,121) scale(1.3733333333333)"><rect width="6" height="6"/></g>
<g transform="translate(73,121) scale(1.3733333333333)"><rect width="6" height="6"/></g>
<g transform="translate(89,121) scale(1.3733333333333)"><rect width="6" height="6"/></g>
<g transform="translate(97,121) scale(1.3733333333333)"><rect width="6" height="6"/></g>
<g transform="translate(105,121) scale(1.3733333333333)"><rect width="6" height="6"/></g>
<g transform="translate(113,121) scale(1.3733333333333)"><rect width="6" height="6"/></g>
<g transform="translate(121,121) scale(1.3733333333333)"><rect width="6" height="6"/></g>
<g transform="translate(129,121) scale(1.3733333333333)"><rect width="6" height="6"/></g>
<g transform="translate(137,121) scale(1.3733333333333)"><rect width="6" height="6"/></g>
<g transform="translate(169,121) scale(1.3733333333333)"><rect width="6" height="6"/></g>
<g transform="translate(177,121) scale(1.3733333333333)"><rect width="6" height="6"/></g>
<g transform="translate(185,121) scale(1.3733333333333)"><rect width="6" height="6"/></g>
<g transform="translate(193,121) scale(1.3733333333333)"><rect width="6" height="6"/></g>
<g transform="translate(201,121) scale(1.3733333333333)"><rect width="6" height="6"/></g>
<g transform="translate(209,121) scale(1.3733333333333)"><rect width="6" height="6"/></g>
<g transform="translate(217,121) scale(1.3733333333333)"><rect width="6" height="6"/></g>
<g transform="translate(241,121) scale(1.3733333333333)"><rect width="6" height="6"/></g>
<g transform="translate(257,121) scale(1.3733333333333)"><rect width="6" height="6"/></g>
<g transform="translate(265,121) scale(1.3733333333333)"><rect width="6" height="6"/></g>
<g transform="translate(273,121) scale(1.3733333333333)"><rect width="6" height="6"/></g>
<g transform="translate(281,121) scale(1.3733333333333)"><rect width="6" height="6"/></g>
<g transform="translate(289,121) scale(1.3733333333333)"><rect width="6" height="6"/></g>
<g transform="translate(41,129) scale(1.3733333333333)"><rect width="6" height="6"/></g>
<g transform="translate(49,129) scale(1.3733333333333)"><rect width="6" height="6"/></g>
<g transform="translate(57,129) scale(1.3733333333333)"><rect width="6" height="6"/></g>
<g transform="translate(81,129) scale(1.3733333333333)"><rect width="6" height="6"/></g>
<g transform="translate(105,129) scale(1.3733333333333)"><rect width="6" height="6"/></g>
<g transform="translate(113,129) scale(1.3733333333333)"><rect width="6" height="6"/></g>
<g transform="translate(121,129) scale(1.3733333333333)"><rect width="6" height="6"/></g>
<g transform="translate(129,129) scale(1.3733333333333)"><rect width="6" height="6"/></g>
<g transform="translate(161,129) scale(1.3733333333333)"><rect width="6" height="6"/></g>
<g transform="translate(185,129) scale(1.3733333333333)"><rect width="6" height="6"/></g>
<g transform="translate(201,129) scale(1.3733333333333)"><rect width="6" height="6"/></g>
<g transform="translate(209,129) scale(1.3733333333333)"><rect width="6" height="6"/></g>
<g transform="translate(217,129) scale(1.3733333333333)"><rect width="6" height="6"/></g>
<g transform="translate(257,129) scale(1.3733333333333)"><rect width="6" height="6"/></g>
<g transform="translate(265,129) scale(1.3733333333333)"><rect width="6" height="6"/></g>
<g transform="translate(281,129) scale(1.3733333333333)"><rect width="6" height="6"/></g>
<g transform="translate(33,137) scale(1.3733333333333)"><rect width="6" height="6"/></g>
<g transform="translate(41,137) scale(1.3733333333333)"><rect width="6" height="6"/></g>
<g transform="translate(49,137) scale(1.3733333333333)"><rect width="6" height="6"/></g>
<g transform="translate(65,137) scale(1.3733333333333)"><rect width="6" height="6"/></g>
<g transform="translate(73,137) scale(1.3733333333333)"><rect width="6" height="6"/></g>
<g transform="translate(97,137) scale(1.3733333333333)"><rect width="6" height="6"/></g>
<g transform="translate(105,137) scale(1.3733333333333)"><rect width="6" height="6"/></g>
<g transform="translate(121,137) scale(1.3733333333333)"><rect width="6" height="6"/></g>
<g transform="translate(129,137) scale(1.3733333333333)"><rect width="6" height="6"/></g>
<g transform="translate(145,137) scale(1.3733333333333)"><rect width="6" height="6"/></g>
<g transform="translate(177,137) scale(1.3733333333333)"><rect width="6" height="6"/></g>
<g transform="translate(201,137) scale(1.3733333333333)"><rect width="6" height="6"/></g>
<g transform="translate(209,137) scale(1.3733333333333)"><rect width="6" height="6"/></g>
<g transform="translate(217,137) scale(1.3733333333333)"><rect width="6" height="6"/></g>
<g transform="translate(225,137) scale(1.3733333333333)"><rect width="6" height="6"/></g>
<g transform="translate(233,137) scale(1.3733333333333)"><rect width="6" height="6"/></g>
<g transform="translate(241,137) scale(1.3733333333333)"><rect width="6" height="6"/></g>
<g transform="translate(273,137) scale(1.3733333333333)"><rect width="6" height="6"/></g>
<g transform="translate(281,137) scale(1.3733333333333)"><rect width="6" height="6"/></g>
<g transform="translate(289,137) scale(1.3733333333333)"><rect width="6" height="6"/></g>
<g transform="translate(33,145) scale(1.3733333333333)"><rect width="6" height="6"/></g>
<g transform="translate(49,145) scale(1.3733333333333)"><rect width="6" height="6"/></g>
<g transform="translate(57,145) scale(1.3733333333333)"><rect width="6" height="6"/></g>
<g transform="translate(65,145) scale(1.3733333333333)"><rect width="6" height="6"/></g>
<g transform="translate(73,145) scale(1.3733333333333)"><rect width="6" height="6"/></g>
<g transform="translate(81,145) scale(1.3733333333333)"><rect width="6" height="6"/></g>
<g transform="translate(89,145) scale(1.3733333333333)"><rect width="6" height="6"/></g>
<g transform="translate(97,145) scale(1.3733333333333)"><rect width="6" height="6"/></g>
<g transform="translate(105,145) scale(1.3733333333333)"><rect width="6" height="6"/></g>
<g transform="translate(113,145) scale(1.3733333333333)"><rect width="6" height="6"/></g>
<g transform="translate(121,145) scale(1.3733333333333)"><rect width="6" height="6"/></g>
<g transform="translate(137,145) scale(1.3733333333333)"><rect width="6" height="6"/></g>
<g transform="translate(153,145) scale(1.3733333333333)"><rect width="6" height="6"/></g>
<g transform="translate(193,145) scale(1.3733333333333)"><rect width="6" height="6"/></g>
<g transform="translate(201,145) scale(1.3733333333333)"><rect width="6" height="6"/></g>
<g transform="translate(209,145) scale(1.3733333333333)"><rect width="6" height="6"/></g>
<g transform="translate(233,145) scale(1.3733333333333)"><rect width="6" height="6"/></g>
<g transform="translate(241,145) scale(1.3733333333333)"><rect width="6" height="6"/></g>
<g transform="translate(257,145) scale(1.3733333333333)"><rect width="6" height="6"/></g>
<g transform="translate(265,145) scale(1.3733333333333)"><rect width="6" height="6"/></g>
<g transform="translate(273,145) scale(1.3733333333333)"><rect width="6" height="6"/></g>
<g transform="translate(281,145) scale(1.3733333333333)"><rect width="6" height="6"/></g>
<g transform="translate(65,153) scale(1.3733333333333)"><rect width="6" height="6"/></g>
<g transform="translate(97,153) scale(1.3733333333333)"><rect width="6" height="6"/></g>
<g transform="translate(177,153) scale(1.3733333333333)"><rect width="6" height="6"/></g>
<g transform="translate(201,153) scale(1.3733333333333)"><rect width="6" height="6"/></g>
<g transform="translate(209,153) scale(1.3733333333333)"><rect width="6" height="6"/></g>
<g transform="translate(217,153) scale(1.3733333333333)"><rect width="6" height="6"/></g>
<g transform="translate(233,153) scale(1.3733333333333)"><rect width="6" height="6"/></g>
<g transform="translate(241,153) scale(1.3733333333333)"><rect width="6" height="6"/></g>
<g transform="translate(257,153) scale(1.3733333333333)"><rect width="6" height="6"/></g>
<g transform="translate(265,153) scale(1.3733333333333)"><rect width="6" height="6"/></g>
<g transform="translate(273,153) scale(1.3733333333333)"><rect width="6" height="6"/></g>
<g transform="translate(33,161) scale(1.3733333333333)"><rect width="6" height="6"/></g>
<g transform="translate(41,161) scale(1.3733333333333)"><rect width="6" height="6"/></g>
<g transform="translate(49,161) scale(1.3733333333333)"><rect width="6" height="6"/></g>
<g transform="translate(57,161) scale(1.3733333333333)"><rect width="6" height="6"/></g>
<g transform="translate(73,161) scale(1.3733333333333)"><rect width="6" height="6"/></g>
<g transform="translate(81,161) scale(1.3733333333333)"><rect width="6" height="6"/></g>
<g transform="translate(97,161) scale(1.3733333333333)"><rect width="6" height="6"/></g>
<g transform="translate(121,161) scale(1.3733333333333)"><rect width="6" height="6"/></g>
<g transform="translate(129,161) scale(1.3733333333333)"><rect width="6" height="6"/></g>
<g transform="translate(137,161) scale(1.3733333333333)"><rect width="6" height="6"/></g>
<g transform="translate(169,161) scale(1.3733333333333)"><rect width="6" height="6"/></g>
<g transform="translate(209,161) scale(1.3733333333333)"><rect width="6" height="6"/></g>
<g transform="translate(225,161) scale(1.3733333333333)"><rect width="6" height="6"/></g>
<g transform="translate(233,161) scale(1.3733333333333)"><rect width="6" height="6"/></g>
<g transform="translate(249,161) scale(1.3733333333333)"><rect width="6" height="6"/></g>
<g transform="translate(257,161) scale(1.3733333333333)"><rect width="6" height="6"/></g>
<g transform="translate(265,161) scale(1.3733333333333)"><rect width="6" height="6"/></g>
<g transform="translate(289,161) scale(1.3733333333333)"><rect width="6" height="6"/></g>
<g transform="translate(33,169) scale(1.3733333333333)"><rect width="6" height="6"/></g>
<g transform="translate(41,169) scale(1.3733333333333)"><rect width="6" height="6"/></g>
<g transform="translate(57,169) scale(1.3733333333333)"><rect width="6" height="6"/></g>
<g transform="translate(73,169) scale(1.3733333333333)"><rect width="6" height="6"/></g>
<g transform="translate(89,169) scale(1.3733333333333)"><rect width="6" height="6"/></g>
<g transform="translate(105,169) scale(1.3733333333333)"><rect width="6" height="6"/></g>
<g transform="translate(129,169) scale(1.3733333333333)"><rect width="6" height="6"/></g>
<g transform="translate(137,169) scale(1.3733333333333)"><rect width="6" height="6"/></g>
<g transform="translate(161,169) scale(1.3733333333333)"><rect width="6" height="6"/></g>
<g transform="translate(169,169) scale(1.3733333333333)"><rect width="6" height="6"/></g>
<g transform="translate(177,169) scale(1.3733333333333)"><rect width="6" height="6"/></g>
<g transform="translate(185,169) scale(1.3733333333333)"><rect width="6" height="6"/></g>
<g transform="translate(201,169) scale(1.3733333333333)"><rect width="6" height="6"/></g>
<g transform="translate(209,169) scale(1.3733333333333)"><rect width="6" height="6"/></g>
<g transform="translate(217,169) scale(1.3733333333333)"><rect width="6" height="6"/></g>
<g transform="translate(225,169) scale(1.3733333333333)"><rect width="6" height="6"/></g>
<g transform="translate(233,169) scale(1.3733333333333)"><rect width="6" height="6"/></g>
<g transform="translate(241,169) scale(1.3733333333333)"><rect width="6" height="6"/></g>
<g transform="translate(249,169) scale(1.3733333333333)"><rect width="6" height="6"/></g>
<g transform="translate(265,169) scale(1.3733333333333)"><rect width="6" height="6"/></g>
<g transform="translate(273,169) scale(1.3733333333333)"><rect width="6" height="6"/></g>
<g transform="translate(281,169) scale(1.3733333333333)"><rect width="6" height="6"/></g>
<g transform="translate(289,169) scale(1.3733333333333)"><rect width="6" height="6"/></g>
<g transform="translate(49,177) scale(1.3733333333333)"><rect width="6" height="6"/></g>
<g transform="translate(57,177) scale(1.3733333333333)"><rect width="6" height="6"/></g>
<g transform="translate(65,177) scale(1.3733333333333)"><rect width="6" height="6"/></g>
<g transform="translate(73,177) scale(1.3733333333333)"><rect width="6" height="6"/></g>
<g transform="translate(81,177) scale(1.3733333333333)"><rect width="6" height="6"/></g>
<g transform="translate(89,177) scale(1.3733333333333)"><rect width="6" height="6"/></g>
<g transform="translate(105,177) scale(1.3733333333333)"><rect width="6" height="6"/></g>
<g transform="translate(129,177) scale(1.3733333333333)"><rect width="6" height="6"/></g>
<g transform="translate(153,177) scale(1.3733333333333)"><rect width="6" height="6"/></g>
<g transform="translate(161,177) scale(1.3733333333333)"><rect width="6" height="6"/></g>
<g transform="translate(169,177) scale(1.3733333333333)"><rect width="6" height="6"/></g>
<g transform="translate(177,177) scale(1.3733333333333)"><rect width="6" height="6"/></g>
<g transform="translate(193,177) scale(1.3733333333333)"><rect width="6" height="6"/></g>
<g transform="translate(209,177) scale(1.3733333333333)"><rect width="6" height="6"/></g>
<g transform="translate(233,177) scale(1.3733333333333)"><rect width="6" height="6"/></g>
<g transform="translate(241,177) scale(1.3733333333333)"><rect width="6" height="6"/></g>
<g transform="translate(249,177) scale(1.3733333333333)"><rect width="6" height="6"/></g>
<g transform="translate(257,177) scale(1.3733333333333)"><rect width="6" height="6"/></g>
<g transform="translate(273,177) scale(1.3733333333333)"><rect width="6" height="6"/></g>
<g transform="translate(281,177) scale(1.3733333333333)"><rect width="6" height="6"/></g>
<g transform="translate(33,185) scale(1.3733333333333)"><rect width="6" height="6"/></g>
<g transform="translate(49,185) scale(1.3733333333333)"><rect width="6" height="6"/></g>
<g transform="translate(65,185) scale(1.3733333333333)"><rect width="6" height="6"/></g>
<g transform="translate(97,185) scale(1.3733333333333)"><rect width="6" height="6"/></g>
<g transform="translate(113,185) scale(1.3733333333333)"><rect width="6" height="6"/></g>
<g transform="translate(145,185) scale(1.3733333333333)"><rect width="6" height="6"/></g>
<g transform="translate(169,185) scale(1.3733333333333)"><rect width="6" height="6"/></g>
<g transform="translate(193,185) scale(1.3733333333333)"><rect width="6" height="6"/></g>
<g transform="translate(201,185) scale(1.3733333333333)"><rect width="6" height="6"/></g>
<g transform="translate(209,185) scale(1.3733333333333)"><rect width="6" height="6"/></g>
<g transform="translate(217,185) scale(1.3733333333333)"><rect width="6" height="6"/></g>
<g transform="translate(233,185) scale(1.3733333333333)"><rect width="6" height="6"/></g>
<g transform="translate(249,185) scale(1.3733333333333)"><rect width="6" height="6"/></g>
<g transform="translate(257,185) scale(1.3733333333333)"><rect width="6" height="6"/></g>
<g transform="translate(265,185) scale(1.3733333333333)"><rect width="6" height="6"/></g>
<g transform="translate(273,185) scale(1.3733333333333)"><rect width="6" height="6"/></g>
<g transform="translate(281,185) scale(1.3733333333333)"><rect width="6" height="6"/></g>
<g transform="translate(289,185) scale(1.3733333333333)"><rect width="6" height="6"/></g>
<g transform="translate(33,193) scale(1.3733333333333)"><rect width="6" height="6"/></g>
<g transform="translate(49,193) scale(1.3733333333333)"><rect width="6" height="6"/></g>
<g transform="translate(65,193) scale(1.3733333333333)"><rect width="6" height="6"/></g>
<g transform="translate(81,193) scale(1.3733333333333)"><rect width="6" height="6"/></g>
<g transform="translate(121,193) scale(1.3733333333333)"><rect width="6" height="6"/></g>
<g transform="translate(129,193) scale(1.3733333333333)"><rect width="6" height="6"/></g>
<g transform="translate(161,193) scale(1.3733333333333)"><rect width="6" height="6"/></g>
<g transform="translate(169,193) scale(1.3733333333333)"><rect width="6" height="6"/></g>
<g transform="translate(177,193) scale(1.3733333333333)"><rect width="6" height="6"/></g>
<g transform="translate(193,193) scale(1.3733333333333)"><rect width="6" height="6"/></g>
<g transform="translate(209,193) scale(1.3733333333333)"><rect width="6" height="6"/></g>
<g transform="translate(233,193) scale(1.3733333333333)"><rect width="6" height="6"/></g>
<g transform="translate(257,193) scale(1.3733333333333)"><rect width="6" height="6"/></g>
<g transform="translate(265,193) scale(1.3733333333333)"><rect width="6" height="6"/></g>
<g transform="translate(281,193) scale(1.3733333333333)"><rect width="6" height="6"/></g>
<g transform="translate(289,193) scale(1.3733333333333)"><rect width="6" height="6"/></g>
<g transform="translate(33,201) scale(1.3733333333333)"><rect width="6" height="6"/></g>
<g transform="translate(49,201) scale(1.3733333333333)"><rect width="6" height="6"/></g>
<g transform="translate(89,201) scale(1.3733333333333)"><rect width="6" height="6"/></g>
<g transform="translate(97,201) scale(1.3733333333333)"><rect width="6" height="6"/></g>
<g transform="translate(113,201) scale(1.3733333333333)"><rect width="6" height="6"/></g>
<g transform="translate(121,201) scale(1.3733333333333)"><rect width="6" height="6"/></g>
<g transform="translate(129,201) scale(1.3733333333333)"><rect width="6" height="6"/></g>
<g transform="translate(137,201) scale(1.3733333333333)"><rect width="6" height="6"/></g>
<g transform="translate(145,201) scale(1.3733333333333)"><rect width="6" height="6"/></g>
<g transform="translate(161,201) scale(1.3733333333333)"><rect width="6" height="6"/></g>
<g transform="translate(177,201) scale(1.3733333333333)"><rect width="6" height="6"/></g>
<g transform="translate(193,201) scale(1.3733333333333)"><rect width="6" height="6"/></g>
<g transform="translate(201,201) scale(1.3733333333333)"><rect width="6" height="6"/></g>
<g transform="translate(217,201) scale(1.3733333333333)"><rect width="6" height="6"/></g>
<g transform="translate(241,201) scale(1.3733333333333)"><rect width="6" height="6"/></g>
<g transform="translate(249,201) scale(1.3733333333333)"><rect width="6" height="6"/></g>
<g transform="translate(265,201) scale(1.3733333333333)"><rect width="6" height="6"/></g>
<g transform="translate(273,201) scale(1.3733333333333)"><rect width="6" height="6"/></g>
<g transform="translate(289,201) scale(1.3733333333333)"><rect width="6" height="6"/></g>
<g transform="translate(33,209) scale(1.3733333333333)"><rect width="6" height="6"/></g>
<g transform="translate(57,209) scale(1.3733333333333)"><rect width="6" height="6"/></g>
<g transform="translate(73,209) scale(1.3733333333333)"><rect width="6" height="6"/></g>
<g transform="translate(81,209) scale(1.3733333333333)"><rect width="6" height="6"/></g>
<g transform="translate(113,209) scale(1.3733333333333)"><rect width="6" height="6"/></g>
<g transform="translate(137,209) scale(1.3733333333333)"><rect width="6" height="6"/></g>
<g transform="translate(161,209) scale(1.3733333333333)"><rect width="6" height="6"/></g>
<g transform="translate(169,209) scale(1.3733333333333)"><rect width="6" height="6"/></g>
<g transform="translate(177,209) scale(1.3733333333333)"><rect width="6" height="6"/></g>
<g transform="translate(193,209) scale(1.3733333333333)"><rect width="6" height="6"/></g>
<g transform="translate(201,209) scale(1.3733333333333)"><rect width="6" height="6"/></g>
<g transform="translate(209,209) scale(1.3733333333333)"><rect width="6" height="6"/></g>
<g transform="translate(233,209) scale(1.3733333333333)"><rect width="6" height="6"/></g>
<g transform="translate(249,209) scale(1.3733333333333)"><rect width="6" height="6"/></g>
<g transform="translate(273,209) scale(1.3733333333333)"><rect width="6" height="6"/></g>
<g transform="translate(281,209) scale(1.3733333333333)"><rect width="6" height="6"/></g>
<g transform="translate(33,217) scale(1.3733333333333)"><rect width="6" height="6"/></g>
<g transform="translate(49,217) scale(1.3733333333333)"><rect width="6" height="6"/></g>
<g transform="translate(57,217) scale(1.3733333333333)"><rect width="6" height="6"/></g>
<g transform="translate(89,217) scale(1.3733333333333)"><rect width="6" height="6"/></g>
<g transform="translate(161,217) scale(1.3733333333333)"><rect width="6" height="6"/></g>
<g transform="translate(169,217) scale(1.3733333333333)"><rect width="6" height="6"/></g>
<g transform="translate(185,217) scale(1.3733333333333)"><rect width="6" height="6"/></g>
<g transform="translate(201,217) scale(1.3733333333333)"><rect width="6" height="6"/></g>
<g transform="translate(225,217) scale(1.3733333333333)"><rect width="6" height="6"/></g>
<g transform="translate(233,217) scale(1.3733333333333)"><rect width="6" height="6"/></g>
<g transform="translate(241,217) scale(1.3733333333333)"><rect width="6" height="6"/></g>
<g transform="translate(249,217) scale(1.3733333333333)"><rect width="6" height="6"/></g>
<g transform="translate(257,217) scale(1.3733333333333)"><rect width="6" height="6"/></g>
<g transform="translate(265,217) scale(1.3733333333333)"><rect width="6" height="6"/></g>
<g transform="translate(273,217) scale(1.3733333333333)"><rect width="6" height="6"/></g>
<g transform="translate(281,217) scale(1.3733333333333)"><rect width="6" height="6"/></g>
<g transform="translate(289,217) scale(1.3733333333333)"><rect width="6" height="6"/></g>
<g transform="translate(33,225) scale(1.3733333333333)"><rect width="6" height="6"/></g>
<g transform="translate(57,225) scale(1.3733333333333)"><rect width="6" height="6"/></g>
<g transform="translate(73,225) scale(1.3733333333333)"><rect width="6" height="6"/></g>
<g transform="translate(81,225) scale(1.3733333333333)"><rect width="6" height="6"/></g>
<g transform="translate(121,225) scale(1.3733333333333)"><rect width="6" height="6"/></g>
<g transform="translate(129,225) scale(1.3733333333333)"><rect width="6" height="6"/></g>
<g transform="translate(161,225) scale(1.3733333333333)"><rect width="6" height="6"/></g>
<g transform="translate(177,225) scale(1.3733333333333)"><rect width="6" height="6"/></g>
<g transform="translate(209,225) scale(1.3733333333333)"><rect width="6" height="6"/></g>
<g transform="translate(225,225) scale(1.3733333333333)"><rect width="6" height="6"/></g>
<g transform="translate(233,225) scale(1.3733333333333)"><rect width="6" height="6"/></g>
<g transform="translate(241,225) scale(1.3733333333333)"><rect width="6" height="6"/></g>
<g transform="translate(249,225) scale(1.3733333333333)"><rect width="6" height="6"/></g>
<g transform="translate(257,225) scale(1.3733333333333)"><rect width="6" height="6"/></g>
<g transform="translate(289,225) scale(1.3733333333333)"><rect width="6" height="6"/></g>
<g transform="translate(97,233) scale(1.3733333333333)"><rect width="6" height="6"/></g>
<g transform="translate(129,233) scale(1.3733333333333)"><rect width="6" height="6"/></g>
<g transform="translate(137,233) scale(1.3733333333333)"><rect width="6" height="6"/></g>
<g transform="translate(145,233) scale(1.3733333333333)"><rect width="6" height="6"/></g>
<g transform="translate(169,233) scale(1.3733333333333)"><rect width="6" height="6"/></g>
<g transform="translate(185,233) scale(1.3733333333333)"><rect width="6" height="6"/></g>
<g transform="translate(193,233) scale(1.3733333333333)"><rect width="6" height="6"/></g>
<g transform="translate(201,233) scale(1.3733333333333)"><rect width="6" height="6"/></g>
<g transform="translate(209,233) scale(1.3733333333333)"><rect width="6" height="6"/></g>
<g transform="translate(217,233) scale(1.3733333333333)"><rect width="6" height="6"/></g>
<g transform="translate(225,233) scale(1.3733333333333)"><rect width="6" height="6"/></g>
<g transform="translate(257,233) scale(1.3733333333333)"><rect width="6" height="6"/></g>
<g transform="translate(273,233) scale(1.3733333333333)"><rect width="6" height="6"/></g>
<g transform="translate(289,233) scale(1.3733333333333)"><rect width="6" height="6"/></g>
<g transform="translate(97,241) scale(1.3733333333333)"><rect width="6" height="6"/></g>
<g transform="translate(105,241) scale(1.3733333333333)"><rect width="6" height="6"/></g>
<g transform="translate(145,241) scale(1.3733333333333)"><rect width="6" height="6"/></g>
<g transform="translate(153,241) scale(1.3733333333333)"><rect width="6" height="6"/></g>
<g transform="translate(161,241) scale(1.3733333333333)"><rect width="6" height="6"/></g>
<g transform="translate(169,241) scale(1.3733333333333)"><rect width="6" height="6"/></g>
<g transform="translate(209,241) scale(1.3733333333333)"><rect width="6" height="6"/></g>
<g transform="translate(217,241) scale(1.3733333333333)"><rect width="6" height="6"/></g>
<g transform="translate(225,241) scale(1.3733333333333)"><rect width="6" height="6"/></g>
<g transform="translate(241,241) scale(1.3733333333333)"><rect width="6" height="6"/></g>
<g transform="translate(257,241) scale(1.3733333333333)"><rect width="6" height="6"/></g>
<g transform="translate(273,241) scale(1.3733333333333)"><rect width="6" height="6"/></g>
<g transform="translate(97,249) scale(1.3733333333333)"><rect width="6" height="6"/></g>
<g transform="translate(105,249) scale(1.3733333333333)"><rect width="6" height="6"/></g>
<g transform="translate(113,249) scale(1.3733333333333)"><rect width="6" height="6"/></g>
<g transform="translate(129,249) scale(1.3733333333333)"><rect width="6" height="6"/></g>
<g transform="translate(145,249) scale(1.3733333333333)"><rect width="6" height="6"/></g>
<g transform="translate(153,249) scale(1.3733333333333)"><rect width="6" height="6"/></g>
<g transform="translate(161,249) scale(1.3733333333333)"><rect width="6" height="6"/></g>
<g transform="translate(169,249) scale(1.3733333333333)"><rect width="6" height="6"/></g>
<g transform="translate(177,249) scale(1.3733333333333)"><rect width="6" height="6"/></g>
<g transform="translate(185,249) scale(1.3733333333333)"><rect width="6" height="6"/></g>
<g transform="translate(201,249) scale(1.3733333333333)"><rect width="6" height="6"/></g>
<g transform="translate(209,249) scale(1.3733333333333)"><rect width="6" height="6"/></g>
<g transform="translate(217,249) scale(1.3733333333333)"><rect width="6" height="6"/></g>
<g transform="translate(225,249) scale(1.3733333333333)"><rect width="6" height="6"/></g>
<g transform="translate(257,249) scale(1.3733333333333)"><rect width="6" height="6"/></g>
<g transform="translate(265,249) scale(1.3733333333333)"><rect width="6" height="6"/></g>
<g transform="translate(273,249) scale(1.3733333333333)"><rect width="6" height="6"/></g>
<g transform="translate(281,249) scale(1.3733333333333)"><rect width="6" height="6"/></g>
<g transform="translate(97,257) scale(1.3733333333333)"><rect width="6" height="6"/></g>
<g transform="translate(113,257) scale(1.3733333333333)"><rect width="6" height="6"/></g>
<g transform="translate(137,257) scale(1.3733333333333)"><rect width="6" height="6"/></g>
<g transform="translate(145,257) scale(1.3733333333333)"><rect width="6" height="6"/></g>
<g transform="translate(153,257) scale(1.3733333333333)"><rect width="6" height="6"/></g>
<g transform="translate(161,257) scale(1.3733333333333)"><rect width="6" height="6"/></g>
<g transform="translate(177,257) scale(1.3733333333333)"><rect width="6" height="6"/></g>
<g transform="translate(201,257) scale(1.3733333333333)"><rect width="6" height="6"/></g>
<g transform="translate(209,257) scale(1.3733333333333)"><rect width="6" height="6"/></g>
<g transform="translate(225,257) scale(1.3733333333333)"><rect width="6" height="6"/></g>
<g transform="translate(233,257) scale(1.3733333333333)"><rect width="6" height="6"/></g>
<g transform="translate(241,257) scale(1.3733333333333)"><rect width="6" height="6"/></g>
<g transform="translate(249,257) scale(1.3733333333333)"><rect width="6" height="6"/></g>
<g transform="translate(257,257) scale(1.3733333333333)"><rect width="6" height="6"/></g>
<g transform="translate(265,257) scale(1.3733333333333)"><rect width="6" height="6"/></g>
<g transform="translate(281,257) scale(1.3733333333333)"><rect width="6" height="6"/></g>
<g transform="translate(289,257) scale(1.3733333333333)"><rect width="6" height="6"/></g>
<g transform="translate(97,265) scale(1.3733333333333)"><rect width="6" height="6"/></g>
<g transform="translate(113,265) scale(1.3733333333333)"><rect width="6" height="6"/></g>
<g transform="translate(121,265) scale(1.3733333333333)"><rect width="6" height="6"/></g>
<g transform="translate(161,265) scale(1.3733333333333)"><rect width="6" height="6"/></g>
<g transform="translate(185,265) scale(1.3733333333333)"><rect width="6" height="6"/></g>
<g transform="translate(193,265) scale(1.3733333333333)"><rect width="6" height="6"/></g>
<g transform="translate(201,265) scale(1.3733333333333)"><rect width="6" height="6"/></g>
<g transform="translate(209,265) scale(1.3733333333333)"><rect width="6" height="6"/></g>
<g transform="translate(217,265) scale(1.3733333333333)"><rect width="6" height="6"/></g>
<g transform="translate(233,265) scale(1.3733333333333)"><rect width="6" height="6"/></g>
<g transform="translate(257,265) scale(1.3733333333333)"><rect width="6" height="6"/></g>
<g transform="translate(273,265) scale(1.3733333333333)"><rect width="6" height="6"/></g>
<g transform="translate(289,265) scale(1.3733333333333)"><rect width="6" height="6"/></g>
<g transform="translate(97,273) scale(1.3733333333333)"><rect width="6" height="6"/></g>
<g transform="translate(105,273) scale(1.3733333333333)"><rect width="6" height="6"/></g>
<g transform="translate(121,273) scale(1.3733333333333)"><rect width="6" height="6"/></g>
<g transform="translate(137,273) scale(1.3733333333333)"><rect width="6" height="6"/></g>
<g transform="translate(145,273) scale(1.3733333333333)"><rect width="6" height="6"/></g>
<g transform="translate(201,273) scale(1.3733333333333)"><rect width="6" height="6"/></g>
<g transform="translate(209,273) scale(1.3733333333333)"><rect width="6" height="6"/></g>
<g transform="translate(217,273) scale(1.3733333333333)"><rect width="6" height="6"/></g>
<g transform="translate(225,273) scale(1.3733333333333)"><rect width="6" height="6"/></g>
<g transform="translate(233,273) scale(1.3733333333333)"><rect width="6" height="6"/></g>
<g transform="translate(241,273) scale(1.3733333333333)"><rect width="6" height="6"/></g>
<g transform="translate(249,273) scale(1.3733333333333)"><rect width="6" height="6"/></g>
<g transform="translate(265,273) scale(1.3733333333333)"><rect width="6" height="6"/></g>
<g transform="translate(97,281) scale(1.3733333333333)"><rect width="6" height="6"/></g>
<g transform="translate(113,281) scale(1.3733333333333)"><rect width="6" height="6"/></g>
<g transform="translate(121,281) scale(1.3733333333333)"><rect width="6" height="6"/></g>
<g transform="translate(137,281) scale(1.3733333333333)"><rect width="6" height="6"/></g>
<g transform="translate(145,281) scale(1.3733333333333)"><rect width="6" height="6"/></g>
<g transform="translate(161,281) scale(1.3733333333333)"><rect width="6" height="6"/></g>
<g transform="translate(177,281) scale(1.3733333333333)"><rect width="6" height="6"/></g>
<g transform="translate(201,281) scale(1.3733333333333)"><rect width="6" height="6"/></g>
<g transform="translate(209,281) scale(1.3733333333333)"><rect width="6" height="6"/></g>
<g transform="translate(217,281) scale(1.3733333333333)"><rect width="6" height="6"/></g>
<g transform="translate(225,281) scale(1.3733333333333)"><rect width="6" height="6"/></g>
<g transform="translate(233,281) scale(1.3733333333333)"><rect width="6" height="6"/></g>
<g transform="translate(257,281) scale(1.3733333333333)"><rect width="6" height="6"/></g>
<g transform="translate(265,281) scale(1.3733333333333)"><rect width="6" height="6"/></g>
<g transform="translate(273,281) scale(1.3733333333333)"><rect width="6" height="6"/></g>
<g transform="translate(105,289) scale(1.3733333333333)"><rect width="6" height="6"/></g>
<g transform="translate(137,289) scale(1.3733333333333)"><rect width="6" height="6"/></g>
<g transform="translate(145,289) scale(1.3733333333333)"><rect width="6" height="6"/></g>
<g transform="translate(153,289) scale(1.3733333333333)"><rect width="6" height="6"/></g>
<g transform="translate(177,289) scale(1.3733333333333)"><rect width="6" height="6"/></g>
<g transform="translate(185,289) scale(1.3733333333333)"><rect width="6" height="6"/></g>
<g transform="translate(209,289) scale(1.3733333333333)"><rect width="6" height="6"/></g>
<g transform="translate(217,289) scale(1.3733333333333)"><rect width="6" height="6"/></g>
<g transform="translate(225,289) scale(1.3733333333333)"><rect width="6" height="6"/></g>
<g transform="translate(249,289) scale(1.3733333333333)"><rect width="6" height="6"/></g>
<g transform="translate(281,289) scale(1.3733333333333)"><rect width="6" height="6"/></g>
<g transform="translate(33,33)"><g transform="scale(4)"><path d="M0,0v14h14V0H0z M12,12H2V2h10V12z"/></g></g>
<g transform="translate(241,33)"><g transform="scale(4)"><path d="M0,0v14h14V0H0z M12,12H2V2h10V12z"/></g></g>
<g transform="translate(33,241)"><g transform="scale(4)"><path d="M0,0v14h14V0H0z M12,12H2V2h10V12z"/></g></g>
<g transform="translate(49,49)"><g transform="scale(4)"><rect width="6" height="6"/></g></g>
<g transform="translate(257,49)"><g transform="scale(4)"><rect width="6" height="6"/></g></g>
<g transform="translate(49,257)"><g transform="scale(4)"><rect width="6" height="6"/></g></g>
</g><g transform="translate(33,318.36457536343) scale(0.51709257842387)"><path fill="#FFFFFF" d="M26.904296875,35.83984375l-3.125,14.599609375l24.4140625,0l-2.490234375,12.158203125l-24.4140625,0l-6.005859375,28.22265625l-13.4765625,0l14.306640625-67.578125l42.578125,0l-2.685546875,12.59765625l-29.1015625,0z M56.005859375,74.0234375q0-3.857421875,0.7568359375-8.0078125t2.2705078125-8.1298828125t3.759765625-7.568359375t5.224609375-6.298828125t6.6650390625-4.296875t8.0810546875-1.5869140625q4.541015625,0,7.9345703125,1.3671875t5.6884765625,3.90625l0.78125-3.80859375l12.20703125,0l-10.693359375,51.220703125l-10.302734375,0l0.29296875-6.298828125q-2.5390625,2.1484375-4.7119140625,3.6376953125t-4.1748046875,2.4169921875t-4.00390625,1.3427734375t-4.19921875,0.4150390625q-3.662109375,0-6.54296875-1.025390625t-4.8828125-3.2470703125t-3.076171875-5.6884765625t-1.07421875-8.349609375z M94.189453125,53.80859375q-0.78125-0.87890625-1.85546875-1.708984375t-2.34375-1.46484375t-2.685546875-1.025390625t-2.9296875-0.390625q-2.587890625,0-4.7119140625,1.07421875t-3.80859375,2.9052734375t-2.9296875,4.19921875t-2.0751953125,4.9072265625t-1.2451171875,5.126953125t-0.4150390625,4.78515625q0,4.6875,1.5625,6.8359375t4.931640625,2.1484375q1.904296875,0,3.8330078125-0.5859375t3.759765625-1.4892578125t3.4912109375-2.0263671875t3.02734375-2.197265625z M172.265625,90.8203125l6.396484375-30.17578125q0.537109375-2.490234375,0.78125-4.2724609375t0.244140625-3.0517578125q0-2.197265625-1.123046875-3.1494140625t-3.076171875-0.9521484375q-1.416015625,0-3.076171875,0.5859375t-3.41796875,1.5869140625t-3.5400390625,2.3681640625t-3.4912109375,2.880859375l-7.177734375,34.1796875l-12.40234375,0l6.396484375-30.17578125q0.537109375-2.490234375,0.78125-4.2236328125t0.244140625-2.4169921875q0-1.123046875-0.146484375-2.001953125t-0.5859375-1.513671875t-1.26953125-0.9521484375t-2.197265625-0.3173828125q-1.5625,0-3.2958984375,0.6591796875t-3.5400390625,1.708984375t-3.515625,2.3681640625t-3.173828125,2.685546875l-7.177734375,34.1796875l-12.3046875,0l10.791015625-51.220703125l12.3046875,0l-1.416015625,6.640625q4.248046875-3.857421875,8.4716796875-5.9814453125t8.4228515625-2.1240234375q5.46875,0,8.4716796875,2.24609375t3.2470703125,6.93359375q2.63671875-2.197265625,4.98046875-3.90625t4.4921875-2.880859375t4.1748046875-1.7822265625t4.0283203125-0.6103515625q3.515625,0,5.8349609375,0.8544921875t3.7109375,2.392578125t1.9775390625,3.6376953125t0.5859375,4.58984375q0,1.806640625-0.2197265625,3.8330078125t-0.7568359375,4.2724609375l-7.03125,33.10546875l-12.40234375,0z M198.291015625,90.8203125l10.791015625-51.220703125l12.3046875,0l-10.791015625,51.220703125l-12.3046875,0z M211.083984375,27.34375q0-1.025390625,0.341796875-2.4169921875t1.2451171875-2.6611328125t2.5146484375-2.1484375t4.1015625-0.87890625q3.3203125,0,4.7119140625,1.220703125t1.3916015625,3.369140625q0,1.171875-0.390625,2.6123046875t-1.3427734375,2.685546875t-2.5390625,2.0751953125t-4.0283203125,0.830078125q-1.708984375,0-2.880859375-0.3173828125t-1.85546875-0.927734375t-0.9765625-1.4892578125t-0.29296875-1.953125z M224.609375,90.8203125l15.380859375-72.705078125l12.3046875,0l-15.380859375,72.705078125l-12.3046875,0z M243.603515625,97.705078125q2.001953125,0.78125,3.9306640625,1.0986328125t3.4912109375,0.3173828125q1.3671875,0,2.685546875-0.4638671875t2.685546875-1.5869140625t2.8076171875-2.978515625t3.1005859375-4.58984375l1.806640625-2.978515625l-8.10546875-46.923828125l12.3046875,0l5.029296875,33.0078125l18.896484375-33.0078125l13.18359375,0l-33.203125,54.736328125q-2.490234375,4.150390625-4.833984375,7.12890625t-4.9560546875,4.9072265625t-5.712890625,2.83203125t-7.1044921875,0.9033203125q-2.34375,0-5.0048828125-0.5126953125t-5.2978515625-1.2939453125z  M329.541015625,90.8203125l14.306640625-67.578125l13.4765625,0l-11.669921875,54.98046875l27.783203125,0l-2.587890625,12.59765625l-41.30859375,0z M380.6640625,74.0234375q0-3.857421875,0.7568359375-8.0078125t2.2705078125-8.1298828125t3.759765625-7.568359375t5.224609375-6.298828125t6.6650390625-4.296875t8.0810546875-1.5869140625q4.541015625,0,7.9345703125,1.3671875t5.6884765625,3.90625l0.78125-3.80859375l12.20703125,0l-10.693359375,51.220703125l-10.302734375,0l0.29296875-6.298828125q-2.5390625,2.1484375-4.7119140625,3.6376953125t-4.1748046875,2.4169921875t-4.00390625,1.3427734375t-4.19921875,0.4150390625q-3.662109375,0-6.54296875-1.025390625t-4.8828125-3.2470703125t-3.076171875-5.6884765625t-1.07421875-8.349609375z M418.84765625,53.80859375q-0.78125-0.87890625-1.85546875-1.708984375t-2.34375-1.46484375t-2.685546875-1.025390625t-2.9296875-0.390625q-2.587890625,0-4.7119140625,1.07421875t-3.80859375,2.9052734375t-2.9296875,4.19921875t-2.0751953125,4.9072265625t-1.2451171875,5.126953125t-0.4150390625,4.78515625q0,4.6875,1.5625,6.8359375t4.931640625,2.1484375q1.904296875,0,3.8330078125-0.5859375t3.759765625-1.4892578125t3.4912109375-2.0263671875t3.02734375-2.197265625z M490.4296875,90.8203125l-11.279296875,0l-4.39453125-32.6171875l-18.212890625,32.6171875l-11.279296875,0l-2.9296875-51.220703125l12.3046875,0l0.830078125,33.0078125l18.1640625-33.0078125l9.326171875,0l4.4921875,32.71484375l14.404296875-32.71484375l12.79296875,0z"/></g></svg>
